<svg id="레이어_1" data-name="레이어 1" xmlns="http://www.w3.org/2000/svg" viewBox="0 0 20 23"><defs><style>.cls-1{fill:#080240;}</style></defs><g id="alarm"><path id="Combined_Shape" data-name="Combined Shape" class="cls-1" d="M7.19,20.29h5.15a2.73,2.73,0,0,1-5.15,0Zm11.59-1.37H.75l.42-.69a12.25,12.25,0,0,0,1.76-6.15V7.52a6.84,6.84,0,0,1,13.68,0v4.56a12.11,12.11,0,0,0,1.75,6.15l.42.69ZM3.84,7.52v4.57A13.16,13.16,0,0,1,2.34,18H17.19a13.29,13.29,0,0,1-1.5-5.92V7.52a5.93,5.93,0,0,0-11.85,0Z"/></g></svg>