<svg id="레이어_1" data-name="레이어 1" xmlns="http://www.w3.org/2000/svg" viewBox="0 0 62 62"><defs><style>.cls-1{fill:none;}.cls-2{fill:#eaa786;}.cls-3{fill:#080240;}</style></defs><g id="그룹_83" data-name="그룹 83"><g id="그룹_77" data-name="그룹 77"><g id="그룹_2" data-name="그룹 2"><path id="Rectangle" class="cls-1" d="M5,5.32H57.79V58.77H5Z"/><path id="Rectangle-2" class="cls-1" d="M5,4H57.79V57.45H5Z"/></g><path id="패스_1031" data-name="패스 1031" class="cls-2" d="M26.28,16.56,43,31.32l-4.92,5.11L21.52,22Z"/><path id="패스_847" data-name="패스 847" class="cls-1" d="M19,41.68h-.1a1.26,1.26,0,0,0-.84.38,1.09,1.09,0,0,0-.3.79,1.12,1.12,0,0,0,.38.76A1.32,1.32,0,0,0,20,43.53a1,1,0,0,0,.3-.78,1.06,1.06,0,0,0-.38-.77A1.23,1.23,0,0,0,19,41.68Z"/><path id="패스_848" data-name="패스 848" class="cls-1" d="M46.65,28.1a3.61,3.61,0,0,0,1-2.71,1.5,1.5,0,0,0,0-.22l-3.35,3.46a1.66,1.66,0,0,1-1.17.49h0a1.62,1.62,0,0,1-1.06-.38,1.51,1.51,0,0,1-.2-2.12.52.52,0,0,1,.1-.11l4-4.11-1.1-.94-4,4.17a1.67,1.67,0,0,1-1.17.5h0a1.65,1.65,0,0,1-1.06-.39,1.5,1.5,0,0,1-.2-2.12l.09-.1,4-4.11-1.1-.94-4,4.17a1.62,1.62,0,0,1-1.17.49h0a1.64,1.64,0,0,1-1.06-.38,1.53,1.53,0,0,1-.2-2.12.47.47,0,0,1,.1-.1l4-4.11-1.1-1-4,4.18a1.66,1.66,0,0,1-1.17.49h0a1.65,1.65,0,0,1-1.06-.39,1.51,1.51,0,0,1-.2-2.12.94.94,0,0,1,.1-.1l3-3.13a4.24,4.24,0,0,0-2.57,1.23L28.68,19,43.37,31.52Z"/><path id="패스_849" data-name="패스 849" class="cls-1" d="M41.17,33.77,26.48,21.23l-.93.95-1.42,1.47L38.82,36.2Z"/><path id="패스_852" data-name="패스 852" class="cls-1" d="M21.47,26.41a.21.21,0,0,0-.07.15.29.29,0,0,0,.08.14L24.18,29a3.29,3.29,0,0,1,1.16,2.64,3.35,3.35,0,0,1-1.44,2.53l-7.08,4.94a4.68,4.68,0,0,1,2-.55H19a4.58,4.58,0,0,1,3,1.08,4.09,4.09,0,0,1,.8,5.41l4.95-7.7a3.47,3.47,0,0,1,2.5-1.56,3,3,0,0,1,.52,0,3.54,3.54,0,0,1,2.31.85l2.7,2.3A.32.32,0,0,0,36,39H36a.31.31,0,0,0,.18-.09l.41-.43L21.94,25.92Z"/><path id="패스_854" data-name="패스 854" class="cls-1" d="M22.3,45.66A4.68,4.68,0,0,1,19,47h0a4.6,4.6,0,0,1-2.95-1.08,4.09,4.09,0,0,1-.3-6,3,3,0,0,1,.26-.24l0,0a4.18,4.18,0,0,0-1.82,3.19,4.12,4.12,0,0,0,1.46,3.33,4.78,4.78,0,0,0,3.09,1.13,5.17,5.17,0,0,0,.68,0,4.59,4.59,0,0,0,3.25-2l.15-.23-.24.33Z"/><path id="패스_927" data-name="패스 927" class="cls-3" d="M31,14.7a5.42,5.42,0,0,1,4-1.66,6.81,6.81,0,0,1,.78.05l.4-.41a6.12,6.12,0,0,0-1.14-.1h0a6.23,6.23,0,0,0-2.38.46,5.84,5.84,0,0,0-2,1.38l-3.23,3.34.4.34Z"/><path id="패스_928" data-name="패스 928" class="cls-3" d="M39.86,15.47a1.72,1.72,0,0,1,.47-.28L39,14l0,0a1.49,1.49,0,0,1-.22.48Z"/><path id="패스_929" data-name="패스 929" class="cls-3" d="M43.37,18.47a1.72,1.72,0,0,1,.47-.28L42.46,17a1.47,1.47,0,0,1-.23.49Z"/><path id="패스_930" data-name="패스 930" class="cls-3" d="M37.16,39.81a1.6,1.6,0,0,1-1.11.49H36a1.56,1.56,0,0,1-1-.4l-2.69-2.29a2.18,2.18,0,0,0-1.48-.54l-.33,0a2.19,2.19,0,0,0-1.56,1L23.74,46a5.87,5.87,0,0,1-4.18,2.61,6.22,6.22,0,0,1-.86.06,6.08,6.08,0,0,1-3.93-1.44,5.41,5.41,0,0,1-1.93-4.4,5.49,5.49,0,0,1,2.38-4.21l7.93-5.54A2,2,0,0,0,24,31.57,1.91,1.91,0,0,0,23.32,30l-2.7-2.31a1.55,1.55,0,0,1-.54-1.09,1.52,1.52,0,0,1,.44-1.14l.4-.41-.4-.34-.46.48a.71.71,0,0,0-.12.13,1.86,1.86,0,0,0-.43,1.39A1.91,1.91,0,0,0,20.19,28l2.7,2.3a1.75,1.75,0,0,1,.29.32,1.54,1.54,0,0,1-.42,2.11l-7.92,5.53a6,6,0,0,0-2.59,4.53,5.85,5.85,0,0,0,2.1,4.74,6.69,6.69,0,0,0,4.33,1.59h0a7.42,7.42,0,0,0,.94-.06,6.46,6.46,0,0,0,4.6-2.87l5.11-7.94a1.61,1.61,0,0,1,1.15-.72h.24a1.64,1.64,0,0,1,1.05.39l2.69,2.3a2.25,2.25,0,0,0,1.46.54h.16a2.25,2.25,0,0,0,1.5-.68l.41-.42-.4-.34Z"/><path id="패스_931" data-name="패스 931" class="cls-3" d="M46.88,21.46a1.69,1.69,0,0,1,.47-.27L46,20a1.47,1.47,0,0,1-.23.49Z"/><path id="패스_932" data-name="패스 932" class="cls-3" d="M49.1,23.69l-.34.35A5,5,0,0,1,49,25.32,4.94,4.94,0,0,1,47.6,29l-3.23,3.34.4.34,3.29-3.4a5.32,5.32,0,0,0,1.53-4,5.38,5.38,0,0,0-.39-1.72s0,0,0,0Z"/><path id="패스_934" data-name="패스 934" class="cls-3" d="M42.45,32.45,27.76,19.9l-.36.37L42.09,32.82Z"/><path id="패스_935" data-name="패스 935" class="cls-3" d="M22.85,25,37.54,37.53l.36-.37L23.21,24.6Z"/><path id="패스_936" data-name="패스 936" class="cls-3" d="M38.55,38.38l.39.34,4.9-5.06-.4-.34Z"/><path id="패스_937" data-name="패스 937" class="cls-3" d="M22.2,23.74h0L23.88,22l2.87-3-.4-.34-4.9,5.06.4.34Z"/><path id="패스_938" data-name="패스 938" class="cls-3" d="M42.09,32.83l.5.43.35-.37-.5-.43Z"/><path id="패스_939" data-name="패스 939" class="cls-3" d="M37.9,37.15l-.36.37L38,38l.36-.37Z"/><path id="패스_940" data-name="패스 940" class="cls-3" d="M23.21,24.6l-.5-.43-.36.37.5.43Z"/><path id="패스_941" data-name="패스 941" class="cls-3" d="M27.75,19.91l-.5-.43-.35.37.5.42Z"/><path id="패스_942" data-name="패스 942" class="cls-3" d="M26.39,19.42l.5.43.36-.37-.5-.43-2.87,3Z"/><path id="패스_943" data-name="패스 943" class="cls-3" d="M38.94,38.72l4.9-5.07h0l-4.9,5.07Z"/><path id="패스_944" data-name="패스 944" class="cls-3" d="M22.2,23.74l-.35.37.5.43.35-.37Z"/><path id="패스_945" data-name="패스 945" class="cls-3" d="M26.35,18.71l-4.9,5.06h0l4.9-5.07Z"/><path id="패스_946" data-name="패스 946" class="cls-3" d="M42.59,33.25l.5.43L38.9,38l-.5-.43-.35.37.5.43,4.9-5.07-.5-.43Z"/><path id="패스_947" data-name="패스 947" class="cls-3" d="M19,39.9h-.2a3.19,3.19,0,0,0-2.15,1,2.8,2.8,0,0,0-.8,2.07,2.84,2.84,0,0,0,1,2A3.14,3.14,0,0,0,19,45.7h0a3.28,3.28,0,0,0,2.32-1l.16-.18a2.75,2.75,0,0,0,.62-2,2.67,2.67,0,0,0-1-1.86A3.26,3.26,0,0,0,19,39.9Zm1.86,4.56a2.65,2.65,0,0,1-3.58.16,2.38,2.38,0,0,1-.17-3.49,2.57,2.57,0,0,1,1.76-.77H19a2.61,2.61,0,0,1,1.69.62,2.34,2.34,0,0,1,.85,1.7,2.39,2.39,0,0,1-.67,1.78Z"/><path id="패스_948" data-name="패스 948" class="cls-3" d="M32.4,18.73a.3.3,0,0,0,.21.08h0v0a.25.25,0,0,0,.23-.09l3.85-4a3.93,3.93,0,0,0-.54-.2l-3.77,3.9a.19.19,0,0,0,0,.28Z"/><path id="패스_949" data-name="패스 949" class="cls-3" d="M37.68,13.61a.15.15,0,0,0-.07-.13.32.32,0,0,0-.44,0c.17.07.32.15.48.23A.16.16,0,0,0,37.68,13.61Z"/><path id="패스_950" data-name="패스 950" class="cls-3" d="M36.69,14.74l.49-.51a3.92,3.92,0,0,0-.51-.22l-.51.53A3.39,3.39,0,0,1,36.69,14.74Z"/><path id="패스_951" data-name="패스 951" class="cls-3" d="M36.67,14a3.92,3.92,0,0,1,.51.22l.45-.46a.05.05,0,0,0,0,0c-.15-.08-.31-.16-.48-.23h0Z"/><path id="패스_952" data-name="패스 952" class="cls-3" d="M35.9,21.73a.35.35,0,0,0,.22.08v0a.34.34,0,0,0,.23-.1l4-4.11-.4-.34-4,4.18a.19.19,0,0,0,0,.28Z"/><path id="패스_953" data-name="패스 953" class="cls-3" d="M41.12,16.48a.3.3,0,0,0-.15-.07l.21.18A.24.24,0,0,0,41.12,16.48Z"/><path id="패스_954" data-name="패스 954" class="cls-3" d="M40.33,17.6l.46-.47-.4-.34-.46.47Z"/><path id="패스_955" data-name="패스 955" class="cls-3" d="M40.67,16.5l-.28.29.4.34.34-.36a.18.18,0,0,0,0-.17L41,16.42A.3.3,0,0,0,40.67,16.5Z"/><path id="패스_956" data-name="패스 956" class="cls-3" d="M39.34,24.59a.21.21,0,0,0,.07.13.27.27,0,0,0,.22.08v0a.31.31,0,0,0,.22-.09l4-4.11-.4-.34-4,4.17A.25.25,0,0,0,39.34,24.59Z"/><path id="패스_957" data-name="패스 957" class="cls-3" d="M44.63,19.48a.3.3,0,0,0-.15-.07l.22.19A.19.19,0,0,0,44.63,19.48Z"/><path id="패스_958" data-name="패스 958" class="cls-3" d="M43.84,20.6l.46-.47-.4-.34-.46.47Z"/><path id="패스_959" data-name="패스 959" class="cls-3" d="M44.18,19.5l-.28.29.4.34.35-.36a.18.18,0,0,0,.05-.16h0l-.22-.19A.33.33,0,0,0,44.18,19.5Z"/><path id="패스_960" data-name="패스 960" class="cls-3" d="M42.92,27.72a.35.35,0,0,0,.22.08v0a.24.24,0,0,0,.22-.09l3.83-4a4.27,4.27,0,0,0-.3-.44l-4,4.12a.22.22,0,0,0,0,.29Z"/><path id="패스_961" data-name="패스 961" class="cls-3" d="M48.15,22.77a.17.17,0,0,0,.06-.16.17.17,0,0,0-.07-.13.31.31,0,0,0-.27-.07,3.18,3.18,0,0,1,.27.37Z"/><path id="패스_962" data-name="패스 962" class="cls-3" d="M47.2,23.75l.48-.49a4.35,4.35,0,0,0-.32-.43l-.46.48A4.27,4.27,0,0,1,47.2,23.75Z"/><path id="패스_963" data-name="패스 963" class="cls-3" d="M47.36,22.83a4.35,4.35,0,0,1,.32.43l.46-.48c-.08-.13-.18-.25-.27-.37a.31.31,0,0,0-.18.09Z"/></g><g id="그룹_82" data-name="그룹 82"><rect id="Rectangle_Copy_2" data-name="Rectangle Copy 2" class="cls-1" width="62" height="62"/></g></g></svg>