<svg id="Layer_1" data-name="Layer 1" xmlns="http://www.w3.org/2000/svg" xmlns:xlink="http://www.w3.org/1999/xlink" viewBox="0 0 64 64"><defs><style>.cls-1{fill:none;}.cls-2{fill:url(#linear-gradient);}.cls-3{fill:#110f3e;}</style><linearGradient id="linear-gradient" x1="-19.2" y1="52.82" x2="-19.2" y2="51.82" gradientTransform="matrix(17.43, 15.14, 4.93, -5.67, 109.63, 614.65)" gradientUnits="userSpaceOnUse"><stop offset="0" stop-color="#74cbee"/><stop offset="1" stop-color="#48b9ea"/></linearGradient></defs><g id="그룹_2" data-name="그룹 2"><path id="Rectangle" class="cls-1" d="M4.67,5H59.33V60.35H4.67Z"/><path id="Rectangle-2" class="cls-1" d="M4.67,3.65H59.33V59H4.67Z"/></g><path id="패스_1031" data-name="패스 1031" class="cls-2" d="M26.7,16.66,44,31.93l-5.1,5.3L21.78,22.33Z"/><path id="패스_847" data-name="패스 847" class="cls-1" d="M19.2,42.66h-.1a1.27,1.27,0,0,0-.87.4,1.1,1.1,0,0,0-.31.81,1.08,1.08,0,0,0,.39.79,1.37,1.37,0,0,0,1.85-.08,1,1,0,0,0,.31-.81,1.06,1.06,0,0,0-.39-.79A1.32,1.32,0,0,0,19.2,42.66Z"/><path id="패스_849" data-name="패스 849" class="cls-1" d="M42.12,34.47l-15.21-13-1,1L24.48,24,39.69,37Z"/><path id="패스_927" data-name="패스 927" class="cls-3" d="M31.55,14.73A5.7,5.7,0,0,1,35.67,13a5.42,5.42,0,0,1,.81.06l.41-.43a6.64,6.64,0,0,0-1.18-.11h0A6.51,6.51,0,0,0,33.2,13a6.11,6.11,0,0,0-2.12,1.43L27.73,17.9l.41.35Z"/><path id="패스_928" data-name="패스 928" class="cls-3" d="M40.77,15.52a1.69,1.69,0,0,1,.49-.28L39.86,14l0,0a1.75,1.75,0,0,1-.23.5Z"/><path id="패스_929" data-name="패스 929" class="cls-3" d="M44.4,18.63a1.81,1.81,0,0,1,.48-.29l-1.42-1.22a1.54,1.54,0,0,1-.24.5Z"/><path id="패스_930" data-name="패스 930" class="cls-3" d="M38,40.73a1.65,1.65,0,0,1-1.14.51h-.1a1.7,1.7,0,0,1-1.09-.41l-2.78-2.38a2.2,2.2,0,0,0-1.53-.55,1.94,1.94,0,0,0-.34,0,2.26,2.26,0,0,0-1.62,1l-5.29,8.22a6.13,6.13,0,0,1-4.33,2.71,6.54,6.54,0,0,1-.89.06,6.33,6.33,0,0,1-4.07-1.5,5.62,5.62,0,0,1-2-4.56,5.7,5.7,0,0,1,2.48-4.36l8.2-5.73a2,2,0,0,0,.9-1.56,2,2,0,0,0-.72-1.62l-2.8-2.39a1.57,1.57,0,0,1-.55-1.12,1.59,1.59,0,0,1,.45-1.19l.42-.43-.41-.35-.49.5-.12.14a2,2,0,0,0,.26,2.77l2.8,2.39a1.18,1.18,0,0,1,.3.33,1.57,1.57,0,0,1-.43,2.18l-8.2,5.72a6.13,6.13,0,0,0-2.67,4.7,6,6,0,0,0,2.17,4.91,7,7,0,0,0,4.47,1.65h0a7.93,7.93,0,0,0,1-.07,6.66,6.66,0,0,0,4.76-3l5.29-8.22a1.68,1.68,0,0,1,1.19-.74l.24,0a1.67,1.67,0,0,1,1.09.4l2.79,2.39a2.32,2.32,0,0,0,1.51.55h.17a2.24,2.24,0,0,0,1.55-.7l.42-.43-.41-.35Z"/><path id="패스_931" data-name="패스 931" class="cls-3" d="M48,21.73a1.6,1.6,0,0,1,.49-.28l-1.43-1.22a1.73,1.73,0,0,1-.23.5Z"/><path id="패스_932" data-name="패스 932" class="cls-3" d="M50.33,24l-.35.36a5.06,5.06,0,0,1,.26,1.33,5.12,5.12,0,0,1-1.46,3.84L45.43,33l.42.36,3.4-3.52a5.42,5.42,0,0,0,1.18-5.93v0Z"/><path id="패스_934" data-name="패스 934" class="cls-3" d="M43.44,33.11l-15.21-13-.37.38,15.21,13Z"/><path id="패스_935" data-name="패스 935" class="cls-3" d="M23.16,25.36l15.21,13,.37-.39L23.53,25Z"/><path id="패스_936" data-name="패스 936" class="cls-3" d="M39.41,39.25l.41.34,5.07-5.24L44.48,34Z"/><path id="패스_937" data-name="패스 937" class="cls-3" d="M22.49,24.09h0l1.73-1.79,3-3.07-.42-.35-5.07,5.24.41.35Z"/><path id="패스_938" data-name="패스 938" class="cls-3" d="M43.07,33.49l.52.45.37-.39-.52-.44Z"/><path id="패스_939" data-name="패스 939" class="cls-3" d="M38.74,38l-.37.39.52.44.37-.38Z"/><path id="패스_940" data-name="패스 940" class="cls-3" d="M23.53,25,23,24.54l-.37.38.52.44Z"/><path id="패스_941" data-name="패스 941" class="cls-3" d="M28.23,20.11l-.52-.44-.37.38.52.45Z"/><path id="패스_942" data-name="패스 942" class="cls-3" d="M26.82,19.61l.52.44.37-.38-.52-.44-3,3.07Z"/><path id="패스_943" data-name="패스 943" class="cls-3" d="M39.82,39.59l5.08-5.24h0l-5.08,5.24Z"/><path id="패스_944" data-name="패스 944" class="cls-3" d="M22.49,24.09l-.37.38.52.45.37-.38Z"/><path id="패스_945" data-name="패스 945" class="cls-3" d="M26.78,18.87,21.7,24.12h0l5.08-5.25Z"/><path id="패스_946" data-name="패스 946" class="cls-3" d="M43.59,33.94l.52.44-4.34,4.48-.51-.44-.37.38.52.45L44.48,34,44,33.55Z"/><path id="패스_947" data-name="패스 947" class="cls-3" d="M19.21,40.81H19a3.34,3.34,0,0,0-2.23,1A2.86,2.86,0,0,0,16,44,2.89,2.89,0,0,0,17,46a3.28,3.28,0,0,0,2.2.8h0a3.37,3.37,0,0,0,2.4-1l.17-.19a2.87,2.87,0,0,0-.38-4A3.43,3.43,0,0,0,19.21,40.81Zm1.92,4.73a2.67,2.67,0,0,1-1.94.8,2.77,2.77,0,0,1-1.76-.63,2.55,2.55,0,0,1-.88-1.78,2.44,2.44,0,0,1,.7-1.83,2.61,2.61,0,0,1,1.82-.8h.13a2.68,2.68,0,0,1,1.75.64,2.45,2.45,0,0,1,.18,3.6Z"/><path id="패스_949" data-name="패스 949" class="cls-3" d="M38.51,13.6a.21.21,0,0,0-.07-.14.35.35,0,0,0-.46,0c.17.07.34.16.5.24A.16.16,0,0,0,38.51,13.6Z"/><path class="cls-3" d="M33,18.6a.19.19,0,0,0,0,.28s0,0,0,0a.35.35,0,0,0,.22.08.23.23,0,0,0,.23-.1l4-4.12a3.73,3.73,0,0,0-.56-.2Z"/><path class="cls-3" d="M38,13.48h0l-.5.52h0l-.54.55a5.37,5.37,0,0,1,.56.21l.5-.53h0l.46-.47,0,0C38.32,13.64,38.15,13.56,38,13.48Z"/><path id="패스_953" data-name="패스 953" class="cls-3" d="M42.07,16.57a.29.29,0,0,0-.16-.07l.22.19A.14.14,0,0,0,42.07,16.57Z"/><path class="cls-3" d="M36.65,21.7a.19.19,0,0,0,0,.28l0,0a.31.31,0,0,0,.22.09.35.35,0,0,0,.24-.1l4.12-4.26-.42-.35Z"/><polygon class="cls-3" points="40.84 17.38 41.25 17.73 41.73 17.24 41.32 16.89 40.84 17.38"/><path class="cls-3" d="M41.91,16.5a.33.33,0,0,0-.3.09l-.29.3.41.35.36-.37a.2.2,0,0,0,0-.18Z"/><path class="cls-3" d="M40.29,24.8a.19.19,0,0,0-.06.17.21.21,0,0,0,.07.13.32.32,0,0,0,.23.09.4.4,0,0,0,.23-.1l4.12-4.25-.41-.36Z"/><path class="cls-3" d="M45.77,19.8a.22.22,0,0,0-.06-.13.44.44,0,0,0-.16-.06h0a.34.34,0,0,0-.3.1L45,20h0l-.48.49.42.35.47-.49h0l.36-.37a.25.25,0,0,0,.06-.17h0Z"/><path class="cls-3" d="M43.92,27.9a.21.21,0,0,0,0,.29l0,0a.35.35,0,0,0,.22.08.23.23,0,0,0,.23-.1l4-4.1a4.63,4.63,0,0,0-.31-.46Z"/><path class="cls-3" d="M49.34,22.78a.33.33,0,0,0-.29-.07h0a.31.31,0,0,0-.18.09l-.34.35h0l-.47.49a4.63,4.63,0,0,1,.31.46l.49-.51h0l.48-.5h0a.17.17,0,0,0,.06-.16A.17.17,0,0,0,49.34,22.78Z"/></svg>