<svg id="레이어_1" data-name="레이어 1" xmlns="http://www.w3.org/2000/svg" viewBox="0 0 31 35"><defs><style>.cls-1,.cls-2{isolation:isolate;}.cls-2{font-size:10px;font-family:Avenir-Medium, Avenir;font-weight:500;letter-spacing:0.02em;}.cls-3,.cls-4{fill:none;stroke-miterlimit:10;}.cls-3{stroke-linecap:square;}</style></defs><g id="그룹_116" data-name="그룹 116"><g id="그룹_13" data-name="그룹 13"><g id="Container"><g id="_Label" data-name=" Label" class="cls-1"><text class="cls-2" fill="#080040" transform="translate(1.47 33)">Home</text></g></g></g><g id="shop"><path id="Path" stroke="#080040" class="cls-3" d="M8.57,12.7v8h14.7v-8"/><path id="Path-2" stroke="#080040" class="cls-3" d="M25.92,8a3,3,0,0,1-3,2.67A3.06,3.06,0,0,1,20.6,9.53a3,3,0,0,1-2.34,1.14,3,3,0,0,1-2.34-1.14,3,3,0,0,1-2.34,1.14,3,3,0,0,1-2.33-1.14,3.15,3.15,0,0,1-2.34,1.14A3,3,0,0,1,5.92,8l4-6h12Z"/><path id="Path-3" stroke="#080040"  class="cls-4" d="M13.92,20.7V15.37h4V20.7"/></g></g></svg>