<svg id="레이어_1" data-name="레이어 1" xmlns="http://www.w3.org/2000/svg" viewBox="0 0 62 62"><defs><style>.cls-1{fill:#080240;}.cls-2{fill:none;}.cls-3{fill:#eaa786;}</style></defs><g id="그룹_81" data-name="그룹 81"><path id="패스_984" data-name="패스 984" class="cls-1" d="M7.58,45.05a.22.22,0,0,0,0,.08h0A.22.22,0,0,1,7.58,45.05Z"/><path id="패스_999" data-name="패스 999" class="cls-1" d="M7.59,45.12a.71.71,0,0,0,0,.15C7.59,45.22,7.6,45.17,7.59,45.12Z"/><g id="그룹_7" data-name="그룹 7"><rect id="Rectangle_Copy_2" data-name="Rectangle Copy 2" class="cls-2" width="62" height="62"/></g><path id="패스_850" data-name="패스 850" class="cls-2" d="M41.81,36.09a1.44,1.44,0,0,1-1.44,1.44h0A1.45,1.45,0,0,1,39,36.38l-8.87,1.55-.24,0h0l-.24,0L20.7,36.37a1.46,1.46,0,0,1-1.42,1.16h0a1.45,1.45,0,0,1-1.44-1.45v-.21l-8.58-1.5V41.1H50.4V34.37l-8.58,1.5Z"/><path id="패스_853" data-name="패스 853" class="cls-2" d="M30.74,12.81H28.92a4.53,4.53,0,0,0-4.29,3.07H35A4.53,4.53,0,0,0,30.74,12.81Z"/><path id="패스_855" data-name="패스 855" class="cls-2" d="M29.83,37.78v-.4h0Z"/><path id="패스_859" data-name="패스 859" class="cls-2" d="M19.33,31.66a1.45,1.45,0,0,1,1.4,1.4v.39L29.83,35l9.09-1.59v-.37a1.43,1.43,0,0,1,1.49-1.42,1.42,1.42,0,0,1,1.38,1.28l8.6-1.5V20.8a2,2,0,0,0-2-2H11.28a2,2,0,0,0-2,2V31.44l8.6,1.5A1.43,1.43,0,0,1,19.33,31.66Z"/><path id="패스_969" data-name="패스 969" class="cls-3" d="M8.49,42.44c0,.18,0,.35,0,.53s0,.2,0,.3.06.4.09.6l0,.16c0,.21.1.4.15.59l0,.11c.37,1.09,1,1.81,1.68,1.81H47.6c.56,0,1.07-.46,1.43-1.2l0-.07c.08-.18.16-.36.22-.54l.06-.25a3.17,3.17,0,0,0,.12-.44,1.77,1.77,0,0,0,0-.32,3.5,3.5,0,0,0,.07-.45c0-.11,0-.23,0-.34s0-.32,0-.49v-1H8.49Z"/><rect id="사각형_1463" data-name="사각형 1463" class="cls-1" x="9.26" y="42.26" width="41.14" height="0.58"/><path id="패스_970" data-name="패스 970" class="cls-1" d="M8.1,34.18l-.53-.1H7.52v7H8.1Z"/><path id="패스_971" data-name="패스 971" class="cls-1" d="M8.06,31.23h0V20.8a3.19,3.19,0,0,1,3.18-3.18H21.54a1.36,1.36,0,0,1,0-.29c0-.1,0-.19,0-.29H11.28A3.78,3.78,0,0,0,7.52,20.8V31.24A1.63,1.63,0,0,1,8.06,31.23Z"/><path id="패스_972" data-name="패스 972" class="cls-1" d="M38.12,17.62H48.37a3.18,3.18,0,0,1,3.18,3.18V31.24h0a1.63,1.63,0,0,1,.54,0V20.8A3.78,3.78,0,0,0,48.37,17H38.13c0,.1,0,.19,0,.29A2.64,2.64,0,0,1,38.12,17.62Z"/><path id="패스_973" data-name="패스 973" class="cls-1" d="M51.55,34.18v6.93h.58v-7h-.06Z"/><path id="패스_974" data-name="패스 974" class="cls-1" d="M11.28,48.27H48.37A3.82,3.82,0,0,0,49.79,48H9.87A3.81,3.81,0,0,0,11.28,48.27Z"/><path id="패스_975" data-name="패스 975" class="cls-1" d="M51.55,43.36l.36-1.1h-.36Z"/><path id="패스_976" data-name="패스 976" class="cls-1" d="M7.59,45.13,9,46.83h.09A.31.31,0,0,1,9,46.76L9,46.67a3.79,3.79,0,0,1-.32-.38,1.74,1.74,0,0,1-.1-.19l-.19-.35a2.17,2.17,0,0,1-.07-.24,2.53,2.53,0,0,1-.12-.36,2.66,2.66,0,0,0,0-.28c0-.12,0-.24,0-.36V42.26H7.53v2.25a3.29,3.29,0,0,0,0,.54A.25.25,0,0,0,7.59,45.13Z"/><path id="패스_977" data-name="패스 977" class="cls-1" d="M51.49,46.61a.3.3,0,0,1,0-.08,3.76,3.76,0,0,0,.3-.56s0-.11.05-.16a3.74,3.74,0,0,0,.17-.54,2.46,2.46,0,0,0,0-.26,2.92,2.92,0,0,0,0-.5V43.45l-1.25,3.83A3.94,3.94,0,0,0,51.49,46.61Z"/><path id="패스_978" data-name="패스 978" class="cls-1" d="M11.28,47.69A3.18,3.18,0,0,1,10,47.41H8.92a4,4,0,0,0,.95.58H49.78a3.67,3.67,0,0,0,.95-.58H49.66a3.15,3.15,0,0,1-1.29.28Z"/><path id="패스_979" data-name="패스 979" class="cls-1" d="M8.92,47.41H10a3.15,3.15,0,0,1-.87-.58H9L7.59,45.12a.71.71,0,0,0,0,.15,4,4,0,0,0,.21.67,0,0,0,0,0,0,0A3.7,3.7,0,0,0,8.92,47.41Z"/><path id="패스_980" data-name="패스 980" class="cls-1" d="M51.55,43.36v1.15l0,.32a3.16,3.16,0,0,1,0,.32,1.55,1.55,0,0,1-.08.23,2.26,2.26,0,0,1-.11.37s-.06.1-.09.16a2.75,2.75,0,0,1-.2.38c0,.07-.11.13-.17.2a2.88,2.88,0,0,1-.22.27,2.6,2.6,0,0,1-.4.33l-.06.06a3.29,3.29,0,0,1-.49.26h1.07l.14-.12,1.26-3.84V42.26h-.22Z"/><rect id="사각형_1464" data-name="사각형 1464" class="cls-1" x="7.52" y="41.1" width="0.58" height="0.58"/><rect id="사각형_1465" data-name="사각형 1465" class="cls-1" x="51.55" y="41.1" width="0.58" height="0.58"/><path id="패스_981" data-name="패스 981" class="cls-1" d="M8.28,45.51c0-.12-.08-.24-.11-.36C8.2,45.27,8.24,45.39,8.28,45.51Z"/><path id="패스_982" data-name="패스 982" class="cls-1" d="M8.1,44.51c0,.12,0,.24,0,.36,0-.12,0-.24,0-.36Z"/><path id="패스_983" data-name="패스 983" class="cls-1" d="M9,46.76l.09.07h0Z"/><path id="패스_985" data-name="패스 985" class="cls-1" d="M8.54,46.1a3.9,3.9,0,0,1-.19-.35A3.9,3.9,0,0,0,8.54,46.1Z"/><path id="패스_986" data-name="패스 986" class="cls-1" d="M9,46.67a2.8,2.8,0,0,1-.32-.38A2.8,2.8,0,0,0,9,46.67Z"/><path id="패스_987" data-name="패스 987" class="cls-1" d="M52.08,45a2.6,2.6,0,0,1,0,.26A2.6,2.6,0,0,0,52.08,45Z"/><path id="패스_988" data-name="패스 988" class="cls-1" d="M51.89,45.8a.85.85,0,0,1-.06.17A.85.85,0,0,0,51.89,45.8Z"/><path id="패스_989" data-name="패스 989" class="cls-1" d="M48.37,47.69H11.28A3.22,3.22,0,0,1,10,47.41h0a3.22,3.22,0,0,0,1.29.28H48.37a3.23,3.23,0,0,0,1.3-.28h0A3.23,3.23,0,0,1,48.37,47.69Z"/><path id="패스_990" data-name="패스 990" class="cls-1" d="M51.53,46.53a.2.2,0,0,0,0,.08A.3.3,0,0,1,51.53,46.53Z"/><rect id="사각형_1466" data-name="사각형 1466" class="cls-1" x="7.52" y="41.68" width="0.58" height="0.58"/><path id="패스_991" data-name="패스 991" class="cls-1" d="M49.66,47.41a2.62,2.62,0,0,0,.49-.27,2.62,2.62,0,0,1-.49.27Z"/><path id="패스_992" data-name="패스 992" class="cls-1" d="M51.55,42.26h.58v-.58h-.58Z"/><path id="패스_993" data-name="패스 993" class="cls-1" d="M9.13,46.83h0a3,3,0,0,0,.86.58h0A3,3,0,0,1,9.13,46.83Z"/><path id="패스_994" data-name="패스 994" class="cls-1" d="M51.3,45.75l-.09.16A1.29,1.29,0,0,0,51.3,45.75Z"/><path id="패스_995" data-name="패스 995" class="cls-1" d="M51,46.29l-.18.2Z"/><path id="패스_996" data-name="패스 996" class="cls-1" d="M50.62,46.76a4.12,4.12,0,0,1-.4.33A4.12,4.12,0,0,0,50.62,46.76Z"/><path id="패스_997" data-name="패스 997" class="cls-1" d="M7.82,46a0,0,0,0,0,0,0A0,0,0,0,1,7.82,46Z"/><path id="패스_998" data-name="패스 998" class="cls-1" d="M51.48,45.15a2.17,2.17,0,0,1-.07.24A2.17,2.17,0,0,0,51.48,45.15Z"/><path id="패스_1000" data-name="패스 1000" class="cls-1" d="M51.55,44.51h0l0,.33Z"/><path id="패스_1001" data-name="패스 1001" class="cls-1" d="M28.91,11.66h1.83a5.68,5.68,0,0,1,5.49,4.23h.59a6.27,6.27,0,0,0-6.08-4.81H28.92a6.27,6.27,0,0,0-6.08,4.81h.59A5.68,5.68,0,0,1,28.91,11.66Z"/><path id="패스_1002" data-name="패스 1002" class="cls-1" d="M23,17.62H36.7a.29.29,0,0,0,.29-.29A2.83,2.83,0,0,0,37,17H22.68c0,.1,0,.19,0,.29A.3.3,0,0,0,23,17.62Z"/><path id="패스_1003" data-name="패스 1003" class="cls-1" d="M36.33,16.36l0,.1h.57a3.82,3.82,0,0,0-.11-.57h-.59C36.26,16,36.3,16.2,36.33,16.36Z"/><path id="패스_1004" data-name="패스 1004" class="cls-1" d="M23.32,16.36c0-.16.07-.32.11-.47h-.59c0,.18-.08.38-.11.57h.58Z"/><path id="패스_1005" data-name="패스 1005" class="cls-1" d="M36.45,17H37a5.7,5.7,0,0,0-.06-.58h-.57Z"/><path id="패스_1006" data-name="패스 1006" class="cls-1" d="M23.31,16.46h-.58c0,.19,0,.39-.05.58h.53Z"/><path id="패스_1007" data-name="패스 1007" class="cls-1" d="M38.92,35.21v-.59l-9.09,1.6-9.1-1.6v.59l9.05,1.59,0,.58h0V36.8Z"/><path id="패스_1008" data-name="패스 1008" class="cls-1" d="M41.81,34.7l8.58-1.5v-.59l-8.58,1.5Z"/><path id="패스_1009" data-name="패스 1009" class="cls-1" d="M17.84,34.11l-8.58-1.5v.59l8.58,1.5Z"/><path id="패스_1010" data-name="패스 1010" class="cls-1" d="M51.81,32.37l-.26,0V33l.34-.06a.31.31,0,0,0,.24-.19v-.21A.28.28,0,0,0,51.81,32.37Z"/><path id="패스_1011" data-name="패스 1011" class="cls-1" d="M7.86,32.37H7.81a.28.28,0,0,0-.28.24.29.29,0,0,0,.23.34L8.1,33v-.59Z"/><path id="패스_1012" data-name="패스 1012" class="cls-1" d="M50.39,32.61v.59l.58-.1v-.59Z"/><path id="패스_1013" data-name="패스 1013" class="cls-1" d="M9.26,32.61l-.58-.1v.59l.58.1Z"/><path id="패스_1014" data-name="패스 1014" class="cls-1" d="M51,33.1l.58-.1v-.59l-.58.1Z"/><path id="패스_1015" data-name="패스 1015" class="cls-1" d="M52.15,32.59s0,0,0-.05v.21A.29.29,0,0,0,52.15,32.59Z"/><path id="패스_1016" data-name="패스 1016" class="cls-1" d="M8.68,32.51l-.58-.1V33l.58.1Z"/><path id="패스_1017" data-name="패스 1017" class="cls-1" d="M19,36.09a.29.29,0,0,0,.29.29.27.27,0,0,0,.27-.2l-.56-.1Z"/><path id="패스_1018" data-name="패스 1018" class="cls-1" d="M19.57,33.08a.29.29,0,0,0-.28-.27h0a.3.3,0,0,0-.29.28v0l.58.1Z"/><path id="패스_1019" data-name="패스 1019" class="cls-1" d="M19,34.32v.59l.58.1v-.59Z"/><path id="패스_1020" data-name="패스 1020" class="cls-1" d="M19.57,33.25l-.58-.1v.58l.58.1Z"/><path id="패스_1021" data-name="패스 1021" class="cls-1" d="M19,36.08l.56.1a.15.15,0,0,0,0-.09V35.6L19,35.5Z"/><path id="패스_1022" data-name="패스 1022" class="cls-1" d="M19.57,33.83l-.58-.1v.59l.58.1Z"/><path id="패스_1023" data-name="패스 1023" class="cls-1" d="M19,35.49l.58.1V35l-.58-.1Z"/><path id="패스_1024" data-name="패스 1024" class="cls-1" d="M40.66,33.08a.29.29,0,0,0-.28-.27h0a.3.3,0,0,0-.2.08.27.27,0,0,0-.09.2v.16l.58-.1Z"/><path id="패스_1025" data-name="패스 1025" class="cls-1" d="M40.37,36.38a.29.29,0,0,0,.29-.29h0l-.56.1A.28.28,0,0,0,40.37,36.38Z"/><path id="패스_1026" data-name="패스 1026" class="cls-1" d="M40.08,35l.58-.1v-.58l-.58.1Z"/><path id="패스_1027" data-name="패스 1027" class="cls-1" d="M40.08,36.09a.29.29,0,0,0,0,.09l.56-.1v-.59l-.58.1Z"/><path id="패스_1028" data-name="패스 1028" class="cls-1" d="M40.66,33.73v-.58l-.58.1v.58Z"/><path id="패스_1029" data-name="패스 1029" class="cls-1" d="M40.08,35.59l.58-.1V34.9l-.58.11Z"/><path id="패스_1030" data-name="패스 1030" class="cls-1" d="M40.08,34.42l.58-.1v-.59l-.58.1Z"/></g></svg>