<svg id="Layer_1" data-name="Layer 1" xmlns="http://www.w3.org/2000/svg" xmlns:xlink="http://www.w3.org/1999/xlink" viewBox="0 0 64 62"><defs><style>.cls-1{fill:#110f3e;}.cls-2{fill:none;}.cls-3{fill:url(#linear-gradient);}</style><linearGradient id="linear-gradient" x1="10.61" y1="13.32" x2="10.61" y2="12.32" gradientTransform="matrix(42.6, 0, 0, -5.32, -421.87, 112.66)" gradientUnits="userSpaceOnUse"><stop offset="0" stop-color="#2aaee4"/><stop offset="1" stop-color="#74cbee"/></linearGradient></defs><g id="그룹_81" data-name="그룹 81"><path id="패스_984" data-name="패스 984" class="cls-1" d="M7.78,45.54a.17.17,0,0,0,0,.07h0A.17.17,0,0,0,7.78,45.54Z"/><path id="패스_999" data-name="패스 999" class="cls-1" d="M7.79,45.61a.77.77,0,0,0,0,.15S7.8,45.66,7.79,45.61Z"/><g id="그룹_7" data-name="그룹 7"><rect id="Rectangle_Copy_2" data-name="Rectangle Copy 2" class="cls-2" y="-1" width="64" height="64"/></g><path id="패스_850" data-name="패스 850" class="cls-2" d="M43.23,36.26a1.51,1.51,0,0,1-1.5,1.5h0a1.5,1.5,0,0,1-1.46-1.2l-9.2,1.6a1,1,0,0,1-.25,0h0l-.25,0-9.2-1.6a1.51,1.51,0,0,1-1.46,1.2h0a1.5,1.5,0,0,1-1.5-1.5V36L9.51,34.48v7h42.6v-7L43.22,36Z"/><path id="패스_853" data-name="패스 853" class="cls-2" d="M31.76,12.16H29.87a4.68,4.68,0,0,0-4.43,3.18H36.19A4.67,4.67,0,0,0,31.76,12.16Z"/><path id="패스_855" data-name="패스 855" class="cls-2" d="M30.82,38v-.42h0Z"/><path id="패스_859" data-name="패스 859" class="cls-2" d="M20,31.67a1.5,1.5,0,0,1,1.45,1.45v.4l9.42,1.65,9.42-1.65v-.39a1.49,1.49,0,0,1,1.54-1.46A1.48,1.48,0,0,1,43.21,33l8.9-1.56v-11A2.1,2.1,0,0,0,50,18.33H11.61a2.1,2.1,0,0,0-2.1,2.1h0v11L18.41,33A1.48,1.48,0,0,1,20,31.67Z"/><path id="패스_969" data-name="패스 969" class="cls-3" d="M8.72,42.83c0,.19,0,.37,0,.55s0,.2,0,.3a4.35,4.35,0,0,0,.1.63s0,.11,0,.17c0,.21.1.41.16.6s0,.08,0,.12c.37,1.13,1,1.87,1.73,1.87h38.4c.58,0,1.1-.48,1.48-1.24l0-.08A3.76,3.76,0,0,0,51,45.2c0-.08,0-.17.07-.26s.09-.3.12-.46a3.26,3.26,0,0,0,.05-.33c0-.15.06-.3.08-.47s0-.23,0-.35,0-.33,0-.5V41.75H8.72Z"/><rect id="사각형_1463" data-name="사각형 1463" class="cls-1" x="9.52" y="42.64" width="42.59" height="0.6"/><path id="패스_970" data-name="패스 970" class="cls-1" d="M8.32,34.27l-.55-.1h0v7.28h.6Z"/><path id="패스_971" data-name="패스 971" class="cls-1" d="M8.28,31.23h0V20.42a3.31,3.31,0,0,1,3.3-3.29H22.23a1.45,1.45,0,0,1,0-.3c0-.1,0-.2,0-.3H11.62a3.9,3.9,0,0,0-3.89,3.9V31.24A1.45,1.45,0,0,1,8.28,31.23Z"/><path id="패스_972" data-name="패스 972" class="cls-1" d="M39.4,17.13H50a3.31,3.31,0,0,1,3.29,3.29V31.23h0a1.32,1.32,0,0,1,.56,0V20.43A3.9,3.9,0,0,0,50,16.54H39.42c0,.1,0,.2,0,.29A1.39,1.39,0,0,1,39.4,17.13Z"/><path id="패스_973" data-name="패스 973" class="cls-1" d="M53.31,34.27v7.18h.6V34.17h-.06Z"/><path id="패스_974" data-name="패스 974" class="cls-1" d="M11.62,48.87H50a3.84,3.84,0,0,0,1.46-.29H10.15A3.93,3.93,0,0,0,11.62,48.87Z"/><path id="패스_975" data-name="패스 975" class="cls-1" d="M53.31,43.79l.37-1.15h-.37Z"/><path id="패스_976" data-name="패스 976" class="cls-1" d="M7.79,45.61l1.5,1.77h.09l-.09-.08-.07-.09a3.09,3.09,0,0,1-.33-.39l-.11-.21a3.07,3.07,0,0,1-.2-.36c0-.07-.05-.16-.08-.24s-.08-.25-.11-.37,0-.2,0-.3,0-.24,0-.36V42.64h-.6V45a2.6,2.6,0,0,0,.06.56A.25.25,0,0,1,7.79,45.61Z"/><path id="패스_977" data-name="패스 977" class="cls-1" d="M53.24,47.15a.56.56,0,0,1,0-.08,4.63,4.63,0,0,0,.31-.58,1.77,1.77,0,0,0,.06-.17,4,4,0,0,0,.17-.56,2.48,2.48,0,0,0,0-.27,4.36,4.36,0,0,0,0-.52v-1.1l-1.3,4A3.8,3.8,0,0,0,53.24,47.15Z"/><path id="패스_978" data-name="패스 978" class="cls-1" d="M11.62,48.27A3.23,3.23,0,0,1,10.28,48H9.18a3.64,3.64,0,0,0,1,.6H51.49a4,4,0,0,0,1-.6h-1.1a3.26,3.26,0,0,1-1.34.29Z"/><path id="패스_979" data-name="패스 979" class="cls-1" d="M9.17,48h1.1a3.17,3.17,0,0,1-.89-.6H9.29l-1.5-1.76a.66.66,0,0,0,0,.14,3.35,3.35,0,0,0,.22.7,0,0,0,0,0,0,0A3.89,3.89,0,0,0,9.17,48Z"/><path id="패스_980" data-name="패스 980" class="cls-1" d="M53.31,43.79V45c0,.11,0,.22,0,.33s0,.22,0,.33a2.25,2.25,0,0,1-.08.24c0,.13-.07.25-.11.37l-.09.17a3.61,3.61,0,0,1-.22.39,1.84,1.84,0,0,1-.17.22l-.23.27a2.64,2.64,0,0,1-.41.34l-.07.06a3.53,3.53,0,0,1-.5.28h1.1l.15-.13,1.29-4V42.64h-.22Z"/><rect id="사각형_1464" data-name="사각형 1464" class="cls-1" x="7.73" y="41.45" width="0.6" height="0.6"/><rect id="사각형_1465" data-name="사각형 1465" class="cls-1" x="53.31" y="41.45" width="0.6" height="0.6"/><path id="패스_981" data-name="패스 981" class="cls-1" d="M8.51,46a2.65,2.65,0,0,1-.12-.37A2.65,2.65,0,0,0,8.51,46Z"/><path id="패스_982" data-name="패스 982" class="cls-1" d="M8.32,45c0,.12,0,.24,0,.37,0-.13,0-.25,0-.38Z"/><path id="패스_983" data-name="패스 983" class="cls-1" d="M9.29,47.3l.1.08h0Z"/><path id="패스_985" data-name="패스 985" class="cls-1" d="M8.78,46.62c-.07-.12-.14-.24-.2-.36C8.64,46.38,8.71,46.5,8.78,46.62Z"/><path id="패스_986" data-name="패스 986" class="cls-1" d="M9.22,47.21a3.09,3.09,0,0,1-.33-.39A3.09,3.09,0,0,0,9.22,47.21Z"/><path id="패스_987" data-name="패스 987" class="cls-1" d="M53.86,45.49a2.48,2.48,0,0,1,0,.27A2.48,2.48,0,0,0,53.86,45.49Z"/><path id="패스_988" data-name="패스 988" class="cls-1" d="M53.66,46.31a1.27,1.27,0,0,1-.06.18C53.63,46.43,53.63,46.37,53.66,46.31Z"/><path id="패스_989" data-name="패스 989" class="cls-1" d="M50,48.27H11.62A3.23,3.23,0,0,1,10.28,48h0a3.23,3.23,0,0,0,1.34.29H50A3.26,3.26,0,0,0,51.36,48h0A3.26,3.26,0,0,1,50,48.27Z"/><path id="패스_990" data-name="패스 990" class="cls-1" d="M53.29,47.07a.56.56,0,0,0,0,.08A.56.56,0,0,1,53.29,47.07Z"/><rect id="사각형_1466" data-name="사각형 1466" class="cls-1" x="7.73" y="42.04" width="0.6" height="0.6"/><path id="패스_991" data-name="패스 991" class="cls-1" d="M51.36,48a3.53,3.53,0,0,0,.5-.28A3.53,3.53,0,0,1,51.36,48Z"/><path id="패스_992" data-name="패스 992" class="cls-1" d="M53.31,42.64h.6V42h-.6Z"/><path id="패스_993" data-name="패스 993" class="cls-1" d="M9.38,47.38h0a3.37,3.37,0,0,0,.9.6h0A3.37,3.37,0,0,1,9.38,47.38Z"/><path id="패스_994" data-name="패스 994" class="cls-1" d="M53.05,46.26l-.09.16Z"/><path id="패스_995" data-name="패스 995" class="cls-1" d="M52.74,46.81a1.84,1.84,0,0,1-.17.22A1.84,1.84,0,0,0,52.74,46.81Z"/><path id="패스_996" data-name="패스 996" class="cls-1" d="M52.34,47.3a2.64,2.64,0,0,1-.41.34A2.64,2.64,0,0,0,52.34,47.3Z"/><path id="패스_997" data-name="패스 997" class="cls-1" d="M8,46.49a0,0,0,0,0,0,0A0,0,0,0,1,8,46.49Z"/><path id="패스_998" data-name="패스 998" class="cls-1" d="M53.24,45.64c0,.08-.05.16-.07.24C53.19,45.8,53.22,45.72,53.24,45.64Z"/><path id="패스_1000" data-name="패스 1000" class="cls-1" d="M53.31,45h0l0,.33Z"/><path id="패스_1001" data-name="패스 1001" class="cls-1" d="M29.87,11h1.89a5.88,5.88,0,0,1,5.68,4.38h.61a6.5,6.5,0,0,0-6.29-5H29.87a6.5,6.5,0,0,0-6.29,5h.61A5.87,5.87,0,0,1,29.87,11Z"/><path id="패스_1002" data-name="패스 1002" class="cls-1" d="M23.7,17.13H37.93a.29.29,0,0,0,.3-.3c0-.1,0-.2,0-.3H23.42c0,.1,0,.2,0,.3a.29.29,0,0,0,.3.3Z"/><path id="패스_1003" data-name="패스 1003" class="cls-1" d="M37.55,15.83l0,.1h.6q0-.3-.12-.6h-.61C37.48,15.5,37.52,15.67,37.55,15.83Z"/><path id="패스_1004" data-name="패스 1004" class="cls-1" d="M24.08,15.83c0-.17.07-.33.11-.5h-.61c0,.2-.08.4-.11.6h.6Z"/><path id="패스_1005" data-name="패스 1005" class="cls-1" d="M37.67,16.54h.55c0-.21,0-.4-.06-.61h-.6Z"/><path id="패스_1006" data-name="패스 1006" class="cls-1" d="M24.07,15.94h-.6q0,.3-.06.6H24Z"/><path id="패스_1007" data-name="패스 1007" class="cls-1" d="M40.24,35.34v-.6l-9.42,1.65L21.4,34.74v.61L30.77,37l0,.6h0V37Z"/><path id="패스_1008" data-name="패스 1008" class="cls-1" d="M43.23,34.82l8.88-1.55v-.61l-8.88,1.55Z"/><path id="패스_1009" data-name="패스 1009" class="cls-1" d="M18.4,34.21,9.52,32.66v.61l8.88,1.56Z"/><path id="패스_1010" data-name="패스 1010" class="cls-1" d="M53.58,32.4l-.27.05v.61l.35-.06a.36.36,0,0,0,.25-.2v-.22A.3.3,0,0,0,53.58,32.4Z"/><path id="패스_1011" data-name="패스 1011" class="cls-1" d="M8.08,32.41H8a.29.29,0,0,0-.3.25A.29.29,0,0,0,8,33H8l.35.07v-.62Z"/><path id="패스_1012" data-name="패스 1012" class="cls-1" d="M52.11,32.66v.61l.6-.1v-.61Z"/><path id="패스_1013" data-name="패스 1013" class="cls-1" d="M9.52,32.66l-.6-.1v.61l.6.1Z"/><path id="패스_1014" data-name="패스 1014" class="cls-1" d="M52.71,33.16l.6-.1v-.61l-.6.1Z"/><path id="패스_1015" data-name="패스 1015" class="cls-1" d="M53.93,32.63s0,0,0-.05v.22A.32.32,0,0,0,53.93,32.63Z"/><path id="패스_1016" data-name="패스 1016" class="cls-1" d="M8.92,32.55l-.6-.1v.61l.6.1Z"/><path id="패스_1017" data-name="패스 1017" class="cls-1" d="M19.6,36.26a.31.31,0,0,0,.3.3.3.3,0,0,0,.28-.21l-.58-.1Z"/><path id="패스_1018" data-name="패스 1018" class="cls-1" d="M20.2,33.14a.31.31,0,0,0-.29-.28h0a.31.31,0,0,0-.3.3v.05l.6.1Z"/><path id="패스_1019" data-name="패스 1019" class="cls-1" d="M19.6,34.42V35l.6.1v-.61Z"/><path id="패스_1020" data-name="패스 1020" class="cls-1" d="M20.2,33.32l-.6-.1v.6l.6.1Z"/><path id="패스_1021" data-name="패스 1021" class="cls-1" d="M19.6,36.25l.58.1a.29.29,0,0,0,0-.09v-.51l-.6-.11Z"/><path id="패스_1022" data-name="패스 1022" class="cls-1" d="M20.2,33.92l-.6-.1v.61l.6.1Z"/><path id="패스_1023" data-name="패스 1023" class="cls-1" d="M19.6,35.64l.6.1v-.61l-.6-.1Z"/><path id="패스_1024" data-name="패스 1024" class="cls-1" d="M42,33.14a.31.31,0,0,0-.29-.28h0a.27.27,0,0,0-.2.09.32.32,0,0,0-.1.21v.15l.6-.1Z"/><path id="패스_1025" data-name="패스 1025" class="cls-1" d="M41.73,36.56a.3.3,0,0,0,.3-.3h0l-.58.1A.31.31,0,0,0,41.73,36.56Z"/><path id="패스_1026" data-name="패스 1026" class="cls-1" d="M41.43,35.13,42,35v-.6l-.6.1Z"/><path id="패스_1027" data-name="패스 1027" class="cls-1" d="M41.43,36.26a.29.29,0,0,0,0,.09l.58-.1v-.61l-.6.1Z"/><path id="패스_1028" data-name="패스 1028" class="cls-1" d="M42,33.82v-.61l-.6.1v.61Z"/><path id="패스_1029" data-name="패스 1029" class="cls-1" d="M41.43,35.74l.6-.1V35l-.6.1Z"/><path id="패스_1030" data-name="패스 1030" class="cls-1" d="M41.43,34.53l.6-.1v-.61l-.6.1Z"/></g></svg>