<svg id="레이어_1" data-name="레이어 1" xmlns="http://www.w3.org/2000/svg" viewBox="0 0 62 62"><defs><style>.cls-1{fill:none;}.cls-2{fill:#eaa786;}.cls-3{fill:#090340;}</style></defs><g id="그룹_115" data-name="그룹 115"><rect id="Rectangle_Copy_2" data-name="Rectangle Copy 2" class="cls-1" x="-0.5" y="-0.5" width="63" height="63"/><rect id="사각형_1467" data-name="사각형 1467" class="cls-2" x="15.5" y="27.5" width="6" height="13" rx="1"/><rect id="사각형_1468" data-name="사각형 1468" class="cls-2" x="26.5" y="22.5" width="6" height="18" rx="1"/><rect id="사각형_1469" data-name="사각형 1469" class="cls-2" x="37.5" y="15.5" width="6" height="25" rx="1"/><g id="그룹_104" data-name="그룹 104"><path id="패스_1149" data-name="패스 1149" class="cls-3" d="M45.22,44.36l-27.31.34a.49.49,0,0,0-.49.5.46.46,0,0,0,.46.48h0l27.31-.33a.49.49,0,0,0,.49-.5h0a.51.51,0,0,0-.5-.49Z"/><path id="패스_1150" data-name="패스 1150" class="cls-3" d="M27.9,41.6a1,1,0,0,0,.68.29h0l4.1-.07a1.32,1.32,0,0,0,1.13-1.46l-.14-15.65a1.63,1.63,0,0,0-.46-1.18,1.08,1.08,0,0,0-.7-.29l-4.11.07a1.34,1.34,0,0,0-1.13,1.46l.14,15.66A1.64,1.64,0,0,0,27.9,41.6Zm.53-17.78h0l4.12-.07c.37,0,.64.47.64,1l.14,15.62c0,.53-.29,1-.64,1l-4.11.07c-.37,0-.63-.47-.64-1L27.8,24.81C27.8,24.28,28.09,23.82,28.43,23.82Z"/><path id="패스_1151" data-name="패스 1151" class="cls-3" d="M38.84,41.6a.79.79,0,0,0,.56.23h0l4.1-.1c.64,0,1.13-.87,1.12-1.95l-.13-21.37a2.4,2.4,0,0,0-.58-1.68.83.83,0,0,0-.57-.23h0l-4.11.09c-.64,0-1.14.88-1.13,2l.14,21.37A2.38,2.38,0,0,0,38.84,41.6ZM39,17.27l.11-.16,4.44-.1.12.17A2,2,0,0,1,44,18.45l.13,21.34a2,2,0,0,1-.35,1.28l-.12.16-4.43.1-.12-.17a1.93,1.93,0,0,1-.36-1.27l-.14-21.34A2,2,0,0,1,39,17.27Z"/><path id="패스_1152" data-name="패스 1152" class="cls-3" d="M23,40.42l-.1-10.67a1.61,1.61,0,0,0-.46-1.17,1,1,0,0,0-.69-.29h0l-4.11.07a1.35,1.35,0,0,0-1.13,1.46l.1,10.66a1.64,1.64,0,0,0,.47,1.18,1,1,0,0,0,.68.29l4.12-.07A1.33,1.33,0,0,0,23,40.42Zm-1.13.95h0l-4.12.07c-.37,0-.63-.46-.64-1L17,29.86c0-.54.28-1,.63-1l4.11-.06a.9.9,0,0,1,.65,1l.09,10.63c0,.52-.29,1-.63,1Z"/></g></g></svg>