<svg id="Layer_1" data-name="Layer 1" xmlns="http://www.w3.org/2000/svg" xmlns:xlink="http://www.w3.org/1999/xlink" viewBox="0 0 93.14 90.84"><defs><style>.cls-1{fill:none;}.cls-2{fill:#fab08b;}.cls-3{fill:#74cbee;}.cls-4{fill:url(#linear-gradient);}.cls-5{fill:#ffe9d0;}</style><linearGradient id="linear-gradient" x1="18.2" y1="86.6" x2="15.63" y2="86.6" gradientTransform="matrix(22.5, 0, 0, -41.52, -351.18, 3666.48)" gradientUnits="userSpaceOnUse"><stop offset="0" stop-color="#3c66b0"/><stop offset="0.14" stop-color="#4163ae"/><stop offset="0.34" stop-color="#525ba8"/><stop offset="0.57" stop-color="#704e9c"/><stop offset="0.82" stop-color="#9b3c89"/><stop offset="0.95" stop-color="#b3337e"/></linearGradient></defs><g id="그룹_797" data-name="그룹 797"><g id="그룹_1" data-name="그룹 1"><g id="그룹_798" data-name="그룹 798"><path id="패스_1" data-name="패스 1" class="cls-1" d="M64.64,68h0Z" transform="translate(-0.43 -0.58)"/><path id="패스_2" data-name="패스 2" class="cls-1" d="M29.35,68h0Z" transform="translate(-0.43 -0.58)"/><path id="패스_3-2" data-name="패스 3-2" class="cls-2" d="M36.12,79.05c3.58-9.76,7.49-19,11.08-28.77C45,44.41,42.57,38.05,40.41,32.19h0a10.76,10.76,0,0,0-7.79-6.39,15.06,15.06,0,0,0-2.3-.36h0c-.18,0-.36,0-.54,0H28.67l-.21,0-.34,0-.27,0-.28,0-.33,0-.22,0-.38.07-.18,0-.41.1-.15,0-.4.11-.17.05-.31.1-.24.07-.13.05a12.71,12.71,0,0,0-2.27,1.07h0l-.3.19-.16.1-.18.13-.27.19-.05,0a9.53,9.53,0,0,0-3.25,4.27h0Q9.53,55.62.93,79.05c-1.85,5,1.64,10.34,7.79,11.85a14,14,0,0,0,3.35.41c5,0,9.61-2.66,11.13-6.78L29.28,68v0h0C36.87,88.65,34.27,84.09,36.12,79.05Z" transform="translate(-0.43 -0.58)"/><path id="패스_4-2" data-name="패스 4-2" class="cls-3" d="M93.07,79.17,75.86,32.3h0a10.74,10.74,0,0,0-7.79-6.38,13.9,13.9,0,0,0-2.31-.37h0l-.54,0h-1.3l-.34,0-.27,0-.28,0-.33,0-.22,0-.38.07-.18,0-.41.09-.15,0L61,26l-.17.05-.31.1-.24.08-.13,0a12.71,12.71,0,0,0-2.27,1.07l0,0-.3.19-.16.1-.18.12-.27.19,0,.05a9.5,9.5,0,0,0-3.25,4.26h0L47.13,49.89,57.89,79.17c1.84,5-.75,9.6.76,5.48l6.08-16.56v0l6.08,16.55c1.51,4.12,6.13,6.78,11.13,6.78a14,14,0,0,0,3.35-.4C91.43,89.5,94.92,84.2,93.07,79.17Z" transform="translate(-0.43 -0.58)"/><path id="패스_5" data-name="패스 5" class="cls-4" d="M57.75,79.17,47,49.89,36.24,79.17C34.4,84.2,37.88,89.5,44,91A11.47,11.47,0,0,0,50,91C56.11,89.5,59.6,84.2,57.75,79.17Z" transform="translate(-0.43 -0.58)"/><path id="패스_6-2" data-name="패스 6-2" class="cls-5" d="M58.75,79.16,47,49.88,35.3,79.17c-2,5,1.79,10.33,8.5,11.84a13.32,13.32,0,0,0,6.46,0C57,89.5,60.77,84.2,58.75,79.16Z" transform="translate(-0.43 -0.58)"/><circle id="타원_1-2" data-name="타원 1-2" class="cls-3" cx="64.75" cy="10.47" r="10.47"/><circle id="타원_2-2" data-name="타원 2-2" class="cls-2" cx="28.9" cy="10.47" r="10.47"/></g></g></g></svg>