<svg id="레이어_1" data-name="레이어 1" xmlns="http://www.w3.org/2000/svg" viewBox="0 0 62 62"><defs><style>.cls-1{fill:none;}.cls-2{fill:#080240;}.cls-3{fill:#eaa786;}</style></defs><g id="그룹_78" data-name="그룹 78"><g id="그룹_6" data-name="그룹 6"><rect id="Rectangle" class="cls-1" width="62" height="62"/></g><path id="패스_1032" data-name="패스 1032" class="cls-2" d="M24.61,34.84h0A2.47,2.47,0,0,0,27,33.12l.9-2.86h3.79l.95,2.9A2.5,2.5,0,0,0,35,34.84h.15a2.54,2.54,0,0,0,2-1,2.34,2.34,0,0,0,.35-2.14L33.11,18.43a2.48,2.48,0,0,0-2.36-1.66H29a2.47,2.47,0,0,0-2.36,1.68L22.24,31.7a2.34,2.34,0,0,0,.35,2.14A2.54,2.54,0,0,0,24.61,34.84Zm-1.95-3L27,18.55a2.08,2.08,0,0,1,2-1.4h1.73a2,2,0,0,1,1.94,1.39L37.14,31.8a2,2,0,0,1-.31,1.83,2.07,2.07,0,0,1-1.64.82H35a2.06,2.06,0,0,1-2-1.4l-.85-2.57a.94.94,0,0,0-.86-.6H28.25a.9.9,0,0,0-.86.62L26.6,33a2,2,0,0,1-2,1.43h-.05A2,2,0,0,1,23,33.63a2,2,0,0,1-.3-1.82Z"/><path id="패스_1033" data-name="패스 1033" class="cls-3" d="M22.49,34.89Zm-2.14-3.3c5.1-15.38,5.95-15.95,6.93-16h1.88c1,0,1.81.6,7,16a3.52,3.52,0,0,1-.45,2,2.81,2.81,0,0,1-1.67.89h-.16c-1,0-1.83-.6-3.06-4.32-.14-.4-.94-.66-4.34-.66a1,1,0,0,0-.94.68l-.86,2.75a2.24,2.24,0,0,1-2.13,1.56h-.06a2.26,2.26,0,0,1-1.78-.9,2.12,2.12,0,0,1-.32-2Z"/><path id="패스_844" data-name="패스 844" class="cls-1" d="M38.82,40h-17A14.68,14.68,0,0,1,7.71,29.67V47.49H50Z"/><path id="패스_845" data-name="패스 845" class="cls-1" d="M24.62,33.29h0a.88.88,0,0,0,.86-.62l.8-2.52a2,2,0,0,1,2-1.43h3.12a2.07,2.07,0,0,1,1.95,1.39l.85,2.58a.85.85,0,0,0,.85.6h.15a.93.93,0,0,0,.74-.36.83.83,0,0,0,.12-.76L31.59,18.91a.87.87,0,0,0-.86-.6H29a.92.92,0,0,0-.87.6L23.75,32.17a.8.8,0,0,0,.13.76A.92.92,0,0,0,24.62,33.29Zm3.77-10.37c.17-.56.33-1.17.48-1.78l.05-.19c.09-.39.17-.71.26-1l.11-.43h.89l.16.43.15.56c.2.79.43,1.66.68,2.43l1.31,4-.55.27v.49H26.86Z"/><path id="패스_846" data-name="패스 846" class="cls-1" d="M21.67,37.34H39.24a1.35,1.35,0,0,1,.77.24l9.9,6.59V25.76a11.84,11.84,0,0,0-12-11.6H21.68a11.82,11.82,0,0,0-11.8,11.6A11.81,11.81,0,0,0,21.67,37.34Zm-.54-6,4.39-13.26A3.6,3.6,0,0,1,29,15.61h1.75a3.64,3.64,0,0,1,3.44,2.45l4.45,13.26a3.48,3.48,0,0,1-.52,3.21,3.7,3.7,0,0,1-3,1.46H35a3.63,3.63,0,0,1-3.44-2.47l-.69-2.1h-2.1l-.65,2A3.59,3.59,0,0,1,24.66,36h-.05a3.7,3.7,0,0,1-2.93-1.45,3.47,3.47,0,0,1-.54-3.2Z"/><path id="패스_856" data-name="패스 856" class="cls-1" d="M17.75,12h-10v9.79A14.53,14.53,0,0,1,17.75,12Z"/><path id="패스_858" data-name="패스 858" class="cls-1" d="M52.09,21.83V12h-10A14.55,14.55,0,0,1,52.09,21.83Z"/><path id="패스_964" data-name="패스 964" class="cls-2" d="M21.86,38.88H39.17l12,8a.2.2,0,0,0,.13,0h0a.19.19,0,0,0,.1,0,.18.18,0,0,0,.11-.17v-21A13.38,13.38,0,0,0,37.93,12.62H21.86A13.38,13.38,0,0,0,8.28,25.75,13.38,13.38,0,0,0,21.86,38.88ZM21.68,13H37.93A13,13,0,0,1,51.07,25.74V46.32l-11.7-7.79a.18.18,0,0,0-.13,0H21.86A13,13,0,0,1,8.72,25.77,13,13,0,0,1,21.68,13Z"/><path id="패스_965" data-name="패스 965" class="cls-2" d="M24.61,34.84h0A2.47,2.47,0,0,0,27,33.12l.9-2.86h3.79l.95,2.9A2.5,2.5,0,0,0,35,34.84h.15a2.54,2.54,0,0,0,2-1,2.34,2.34,0,0,0,.35-2.14L33.11,18.43a2.48,2.48,0,0,0-2.36-1.66H29a2.47,2.47,0,0,0-2.36,1.68L22.24,31.7a2.34,2.34,0,0,0,.35,2.14A2.54,2.54,0,0,0,24.61,34.84Zm-1.95-3L27,18.55a2.08,2.08,0,0,1,2-1.4h1.73a2,2,0,0,1,1.94,1.39L37.14,31.8a2,2,0,0,1-.31,1.83,2.07,2.07,0,0,1-1.64.82H35a2.06,2.06,0,0,1-2-1.4l-.85-2.57a.94.94,0,0,0-.86-.6H28.25a.9.9,0,0,0-.86.62L26.6,33a2,2,0,0,1-2,1.43h-.05A2,2,0,0,1,23,33.63a2,2,0,0,1-.3-1.82Z"/><path id="패스_966" data-name="패스 966" class="cls-2" d="M30,25.72l-.26-.78-.25.78Z"/><path id="패스_967" data-name="패스 967" class="cls-2" d="M29.77,22.28c-.09.34-.18.67-.28,1l-1,3.23h2.68l-1.06-3.22C30,23,29.87,22.62,29.77,22.28Zm-1,4,1-3a1.82,1.82,0,0,0,.07-.25l1.07,3.23Z"/><path id="패스_968" data-name="패스 968" class="cls-2" d="M29.7,23.32l-1,3h2.1l-1.07-3.23Zm.34,2.4h-.51l.25-.78.26.78Z"/></g></svg>