<svg id="레이어_1" data-name="레이어 1" xmlns="http://www.w3.org/2000/svg" viewBox="0 0 62 62"><defs><style>.cls-1{fill:none;}.cls-2{fill:#eaa786;}.cls-3{fill:#080240;stroke:#080240;stroke-width:0.2px;}</style></defs><g id="그룹_114" data-name="그룹 114"><rect id="Rectangle_Copy_2" data-name="Rectangle Copy 2" class="cls-1" x="-0.5" y="-0.5" width="63" height="63"/><path id="패스_1143" data-name="패스 1143" class="cls-2" d="M28.5,24.5a7,7,0,1,1-7,7A7,7,0,0,1,28.5,24.5Z"/><g id="그룹_100" data-name="그룹 100"><path id="패스_1135" data-name="패스 1135" class="cls-3" d="M47,20.1a1.63,1.63,0,0,1,1.63,1.63V43.42A1.63,1.63,0,0,1,47,45.05H10.38a1.63,1.63,0,0,1-1.63-1.63V21.73a1.63,1.63,0,0,1,1.63-1.63H14.3a.78.78,0,0,1-.26-.25H10.38A1.88,1.88,0,0,0,8.5,21.73V43.42a1.88,1.88,0,0,0,1.89,1.88H47a1.88,1.88,0,0,0,1.88-1.88V21.73A1.88,1.88,0,0,0,47,19.85H20.89l-.05.25Z"/><path id="패스_1136" data-name="패스 1136" class="cls-3" d="M22.12,40.26a11,11,0,0,0,7.82,3.24h.36a11,11,0,1,0-8.18-3.23ZM30,21.62a10.82,10.82,0,0,1,.21,21.63h-.47A10.82,10.82,0,0,1,30,21.62Z"/><path id="패스_1137" data-name="패스 1137" class="cls-3" d="M16.34,22H11.23v3.9h5.11Zm-.25,3.65H11.48v-3.4h4.61Z"/><path id="패스_1138" data-name="패스 1138" class="cls-3" d="M25.1,37.29a6.78,6.78,0,0,0,4.85,2h0a6.85,6.85,0,1,0-4.86-2Zm.17-9.53A6.57,6.57,0,0,1,30,25.82h0a6.62,6.62,0,1,1-4.68,1.94Z"/><path id="패스_1139" data-name="패스 1139" class="cls-3" d="M30,41.64a9.21,9.21,0,1,0-9.21-9.21A9.21,9.21,0,0,0,30,41.64Zm0-18.17a9,9,0,1,1-9,9,9,9,0,0,1,9-9Z"/><path id="패스_1140" data-name="패스 1140" class="cls-3" d="M14.82,16.75H20V19.1h.24V17c0-.29-.26-.5-.63-.5H15.2c-.37,0-.63.21-.63.5v2.1h.25Z"/><path id="패스_1141" data-name="패스 1141" class="cls-3" d="M20.28,19.1H20v.13H14.82V19.1h-.25c0,.13,0,.36.17.37h5.47l0-.09A2.74,2.74,0,0,0,20.28,19.1Z"/><path id="패스_1142" data-name="패스 1142" class="cls-3" d="M14.75,19.48h0A0,0,0,0,1,14.75,19.48Z"/></g></g></svg>