<svg id="Layer_1" data-name="Layer 1" xmlns="http://www.w3.org/2000/svg" xmlns:xlink="http://www.w3.org/1999/xlink" viewBox="0 0 64 62"><defs><style>.cls-1{fill:url(#linear-gradient);}.cls-2{fill:#110f3e;stroke:#110f3e;stroke-width:0.2px;}</style><linearGradient id="linear-gradient" x1="30" y1="44.23" x2="30" y2="43.23" gradientTransform="matrix(14, 0, 0, -15, -388.13, 688)" gradientUnits="userSpaceOnUse"><stop offset="0" stop-color="#74cbee"/><stop offset="1" stop-color="#45b6e8"/></linearGradient></defs><g id="그룹_101" data-name="그룹 101"><ellipse id="타원_15" data-name="타원 15" class="cls-1" cx="31.89" cy="31.99" rx="7" ry="7.5"/><g id="그룹_100" data-name="그룹 100"><path id="패스_1135" data-name="패스 1135" class="cls-2" d="M50.93,19.82a1.69,1.69,0,0,1,1.69,1.69V44a1.69,1.69,0,0,1-1.69,1.69H13.07A1.69,1.69,0,0,1,11.38,44V21.51a1.69,1.69,0,0,1,1.69-1.69h4.06a1,1,0,0,1-.27-.26H13.07a2,2,0,0,0-2,2V44a2,2,0,0,0,2,1.95H50.93a2,2,0,0,0,2-1.95V21.51a2,2,0,0,0-2-2H24l-.06.25Z"/><path id="패스_1136" data-name="패스 1136" class="cls-2" d="M25.22,40.69a11.37,11.37,0,0,0,8.1,3.36h.37a11.44,11.44,0,1,0-8.46-3.34Zm8.1-19.3a11.2,11.2,0,1,1,.6,22.4h-.87a11.2,11.2,0,0,1,.28-22.4Z"/><path id="패스_1137" data-name="패스 1137" class="cls-2" d="M19.24,21.76H14v4h5.29ZM19,25.53H14.21V22H19Z"/><path id="패스_1138" data-name="패스 1138" class="cls-2" d="M28.3,37.61a7,7,0,0,0,5,2.08h0a7.1,7.1,0,1,0-5-2.08Zm.18-9.87a6.86,6.86,0,0,1,4.84-2h0a6.85,6.85,0,1,1-4.84,2Z"/><path id="패스_1139" data-name="패스 1139" class="cls-2" d="M33.33,42.12a9.54,9.54,0,1,0-9.54-9.54A9.54,9.54,0,0,0,33.33,42.12Zm0-18.81a9.28,9.28,0,1,1-9.28,9.28h0a9.28,9.28,0,0,1,9.27-9.27Z"/><path id="패스_1140" data-name="패스 1140" class="cls-2" d="M17.67,16.35h5.4v2.42h.25V16.61a.57.57,0,0,0-.64-.52H18.05c-.38,0-.65.21-.65.52v2.17h.26Z"/><path id="패스_1141" data-name="패스 1141" class="cls-2" d="M23.31,18.78h-.25v.14h-5.4v-.14H17.4c0,.14,0,.37.18.39h5.66l0-.09A1.57,1.57,0,0,0,23.31,18.78Z"/><path id="패스_1142" data-name="패스 1142" class="cls-2" d="M17.59,19.17h0Z"/></g></g></svg>