<svg id="Layer_1" data-name="Layer 1" xmlns="http://www.w3.org/2000/svg" xmlns:xlink="http://www.w3.org/1999/xlink" viewBox="0 0 64 62"><defs><style>.cls-1{fill:none;}.cls-2{fill:url(#linear-gradient);}.cls-3{fill:#fff;}.cls-4{fill:#110f3e;}</style><linearGradient id="linear-gradient" x1="19.15" y1="50.4" x2="19.15" y2="49.4" gradientTransform="matrix(22, 0, 0, -21, -391, 1070.5)" gradientUnits="userSpaceOnUse"><stop offset="0" stop-color="#74cbee"/><stop offset="1" stop-color="#45b6e8"/></linearGradient></defs><g id="그룹_76" data-name="그룹 76"><g id="그룹_3" data-name="그룹 3"><rect id="Rectangle_Copy_2" data-name="Rectangle Copy 2" class="cls-1" x="0.33" y="-1" width="64" height="64"/></g><g id="그룹_66" data-name="그룹 66"><ellipse id="타원_13" data-name="타원 13" class="cls-2" cx="30.33" cy="22.5" rx="11" ry="10.5"/><ellipse id="타원_14" data-name="타원 14" class="cls-3" cx="29.83" cy="22.5" rx="3.5" ry="4.5"/></g><path id="패스_842" data-name="패스 842" class="cls-1" d="M48,19.55H42a1.34,1.34,0,0,0,.4.06,2.25,2.25,0,0,1,2.24,1.78,12.21,12.21,0,0,1,0,3,2.15,2.15,0,0,1-2.1,1.82h-.2a1.2,1.2,0,0,0-1.09.69,1,1,0,0,0,.3,1.15,2,2,0,0,1,.71,1.37,2,2,0,0,1-.46,1.48,13.15,13.15,0,0,1-2.18,2,2,2,0,0,1-.56.3,1.17,1.17,0,0,1-.41.1,2.21,2.21,0,0,1-1.91-.62,1.36,1.36,0,0,0-.92-.36h0a1.11,1.11,0,0,0-.77.31,1.09,1.09,0,0,0-.32.76,2.14,2.14,0,0,1-1,1.81,1.24,1.24,0,0,1-.81.42,12.59,12.59,0,0,1-1.37.08h0a13.9,13.9,0,0,1-1.44-.08,1.38,1.38,0,0,1-.29-.08h-.05A2.07,2.07,0,0,1,28,33.37a1.09,1.09,0,0,0-1-1.12,1.37,1.37,0,0,0-1,.37,2.15,2.15,0,0,1-.74.48l-.18.07-.17,0-.17,0A2.18,2.18,0,0,1,23,32.82a12.46,12.46,0,0,1-2.13-2A2,2,0,0,1,21.15,28a1,1,0,0,0,.28-1.18,1.07,1.07,0,0,0-1-.67,2.53,2.53,0,0,1-1.5-.46,2,2,0,0,1-.84-1.36,11.89,11.89,0,0,1,0-2.92,2.05,2.05,0,0,1,2.1-1.82H15.7a1.79,1.79,0,0,0-1.8,1.75V41.56H49.84V21.28A1.81,1.81,0,0,0,48,19.55Z"/><path id="패스_843" data-name="패스 843" class="cls-1" d="M31.38,25.22a2.45,2.45,0,0,0,2.5-2.36,2.4,2.4,0,0,0-2.47-2.32h-.09a2.34,2.34,0,1,0,.06,4.68Z"/><path id="패스_851" data-name="패스 851" class="cls-1" d="M10.86,46h42a2.79,2.79,0,0,0,1.78-.64,3.06,3.06,0,0,0,.74-.91H8.35a3.05,3.05,0,0,0,.73.91A2.81,2.81,0,0,0,10.86,46Z"/><path id="패스_860" data-name="패스 860" class="cls-4" d="M12.7,21.28a3,3,0,0,1,3.06-2.93h5.78a1,1,0,0,0-.21-.48H15.75a3.5,3.5,0,0,0-3.61,3.4V41.55h.56Z"/><path id="패스_861" data-name="패스 861" class="cls-4" d="M48,18.35A3,3,0,0,1,51,21.26V41.55h.56V21.28A3.51,3.51,0,0,0,48,17.87H41.54a1,1,0,0,0-.25.48Z"/><path id="패스_862" data-name="패스 862" class="cls-4" d="M52.77,43.23h3.5a.57.57,0,0,1,.47.23.59.59,0,0,1,.12.51,4.26,4.26,0,0,1-1.42,2.29,4,4,0,0,1-2.54.92h-42a4,4,0,0,1-2.55-.92A4.32,4.32,0,0,1,6.91,44,.61.61,0,0,1,7,43.46a.58.58,0,0,1,.47-.23H11a1.64,1.64,0,0,1,0-.22v-.26H6.59a.23.23,0,0,0-.21.23,4.6,4.6,0,0,0,4.5,4.68h42A4.59,4.59,0,0,0,57.38,43a.23.23,0,0,0-.21-.25H52.8V43Z"/><path id="패스_864" data-name="패스 864" class="cls-4" d="M11,43.23h.63a1.05,1.05,0,0,1-.06-.24v-.24h-.6V43Z"/><path id="패스_865" data-name="패스 865" class="cls-4" d="M52.14,43.23h.63a1,1,0,0,0,0-.24v-.24h-.6V43A.71.71,0,0,1,52.14,43.23Z"/><path id="패스_866" data-name="패스 866" class="cls-4" d="M51.6,43a.27.27,0,0,1-.26.26H12.4a.24.24,0,0,1-.26-.22v-.26h-.6V43a1.05,1.05,0,0,0,.06.24H52.14A1.05,1.05,0,0,0,52.2,43v-.24h-.6Z"/><path id="패스_868" data-name="패스 868" class="cls-4" d="M22.61,27.77a2.22,2.22,0,0,1-.7,1.1.81.81,0,0,0-.25.84,1.25,1.25,0,0,1,.3-.42A2,2,0,0,0,22.61,27.77Z"/><path id="패스_869" data-name="패스 869" class="cls-4" d="M42.39,20.8a1.45,1.45,0,0,0,.28,0h0a.84.84,0,0,0-.27,0Z"/><path id="패스_870" data-name="패스 870" class="cls-4" d="M31.38,26.42H31.3a3.4,3.4,0,0,1-1.5-.35,3.5,3.5,0,0,0,1.93.61A3.33,3.33,0,0,0,35,23.63,3.63,3.63,0,0,1,31.38,26.42Z"/><path id="패스_871" data-name="패스 871" class="cls-4" d="M20.24,20.74a.89.89,0,0,0-1,.77.31.31,0,0,1,0,.1,1.25,1.25,0,0,1,1.21-.83,2.15,2.15,0,0,0,2.05-1.24h-.06A2.47,2.47,0,0,1,20.24,20.74Z"/><path id="패스_872" data-name="패스 872" class="cls-4" d="M22.54,19.54a2.38,2.38,0,0,0,.11-.38c0,.07,0,.14-.07.2a1.42,1.42,0,0,1-.11.18h.07Z"/><path id="패스_873" data-name="패스 873" class="cls-4" d="M20.38,24.42v.08a.2.2,0,0,0,.18.11h.08a3.28,3.28,0,0,1,1.45.37,2.91,2.91,0,0,0-1.68-.55Z"/><path id="패스_874" data-name="패스 874" class="cls-4" d="M38.71,31.45a.59.59,0,0,1-.76,0,3.14,3.14,0,0,0-2.12-.79,2.85,2.85,0,0,0-2.35,1.19,2.63,2.63,0,0,0-.5,1.48.6.6,0,0,1-.54.58,9.47,9.47,0,0,1-1.07,0c-.37,0-.75,0-1.13,0h0a2.44,2.44,0,0,1,0,.47h0a10.24,10.24,0,0,0,1.1.05h0c.45,0,.9,0,1.34-.07a.66.66,0,0,0,.2-.06,3.25,3.25,0,0,1,2-3c.1,0,.2-.05.3-.08l.2-.06a3.83,3.83,0,0,1,.68-.08,3.46,3.46,0,0,1,2.43,1h0l.12,0a11.4,11.4,0,0,0,1.79-1.75,3,3,0,0,1-.24-.26A10.9,10.9,0,0,1,38.71,31.45Z"/><path id="패스_875" data-name="패스 875" class="cls-4" d="M27.11,31a2.89,2.89,0,0,1,1.16.23,3,3,0,0,1,1,.67l-.06-.1a2.84,2.84,0,0,0-1.3-1,2.69,2.69,0,0,0-1.08-.2h0a3.06,3.06,0,0,0-2.11.8.6.6,0,0,1-.77,0,9,9,0,0,1-.8-.71A9.41,9.41,0,0,0,24.54,32l.13,0a3.39,3.39,0,0,1,2.42-1Z"/><path id="패스_876" data-name="패스 876" class="cls-4" d="M40.29,16.67h0l.18-.19,0,0a.63.63,0,0,1-.13.2Z"/><path id="패스_877" data-name="패스 877" class="cls-4" d="M29.26,19.55H29a4.13,4.13,0,0,0-1.88,3.35,1.77,1.77,0,0,0,0,.21A4.49,4.49,0,0,1,29.26,19.55Z"/><path id="패스_878" data-name="패스 878" class="cls-4" d="M42.34,24.49h0a3,3,0,0,0-2.69,1.7,2.49,2.49,0,0,0-.2,1,2.57,2.57,0,0,1,.16-.54,3.29,3.29,0,0,1,3-2h.15c.07,0,.1,0,.1-.05s0-.31,0-.47A.62.62,0,0,1,42.34,24.49Z"/><path id="패스_879" data-name="패스 879" class="cls-4" d="M39.85,17.27a3,3,0,0,1,.29-.43,2.38,2.38,0,0,0-.3.43Z"/><path id="패스_880" data-name="패스 880" class="cls-4" d="M29.26,19.54a4.67,4.67,0,0,1,1.42-.6h-.17a4.36,4.36,0,0,0-1.48.6Z"/><path id="패스_881" data-name="패스 881" class="cls-4" d="M40.16,16.82c0-.06.1-.1.14-.15h0Z"/><path id="패스_882" data-name="패스 882" class="cls-4" d="M30.92,18.9c-.14,0-.28,0-.41.05h.17Z"/><path id="패스_883" data-name="패스 883" class="cls-4" d="M39.66,17.66a3.54,3.54,0,0,1,.19-.39h0A2.32,2.32,0,0,0,39.66,17.66Z"/><path id="패스_884" data-name="패스 884" class="cls-4" d="M20.48,20.78a1.26,1.26,0,0,0-1.21.84,11.7,11.7,0,0,0,0,2.51.77.77,0,0,0,.34.53,1.3,1.3,0,0,0,.26.14.89.89,0,0,1-.08-.17,11.92,11.92,0,0,1,0-2.67s0,0,0,0,0-.12,0-.17a.61.61,0,0,1,.58-.54,3.42,3.42,0,0,0,1.67-.5,2.71,2.71,0,0,0,1-1.17h-.56A2.13,2.13,0,0,1,20.48,20.78Z"/><path id="패스_885" data-name="패스 885" class="cls-4" d="M22.34,29.77a.59.59,0,0,1,.11-.7,2.74,2.74,0,0,0,.76-1.38v0a2.7,2.7,0,0,0-.19-.83,2.54,2.54,0,0,0-.83-1.06,2.26,2.26,0,0,1,.42,2A2,2,0,0,1,22,29.29a1.4,1.4,0,0,0-.3.42.79.79,0,0,0,.16.3c.11.14.24.26.36.39A.61.61,0,0,1,22.34,29.77Z"/><path id="패스_886" data-name="패스 886" class="cls-4" d="M22.34,16h0a.88.88,0,0,1,.12-.21A12.38,12.38,0,0,1,24,14.26l.06,0,.16-.15a.67.67,0,0,1,.9.07,2.78,2.78,0,0,0,2.95.67h0l.28-.14a2.89,2.89,0,0,0,.86-.77l0,0a1,1,0,0,0,.1-.17,2.55,2.55,0,0,0,.36-1.4.66.66,0,0,1,.58-.67,11.67,11.67,0,0,1,1.32-.07,10.34,10.34,0,0,1,1.36.08.65.65,0,0,1,.59.68,2.61,2.61,0,0,0,1.61,2.56,2.59,2.59,0,0,0,.95.18,2.53,2.53,0,0,0,1.06-.2l.13-.06.3-.16.25-.19a2,2,0,0,0,.27-.23.68.68,0,0,1,.9-.07A11.59,11.59,0,0,1,41,16a.67.67,0,0,1,.13.41.81.81,0,0,0-.14-.74A12.13,12.13,0,0,0,39,13.85a1,1,0,0,0-1.32.1,2.61,2.61,0,0,1-1.8.72h-.11a2.27,2.27,0,0,1-2.16-2.37.89.89,0,0,0-.82-.92,13.4,13.4,0,0,0-2.76,0,.91.91,0,0,0-.83.91,2.28,2.28,0,0,1-1.47,2.18,2.16,2.16,0,0,1-.83.14,2.47,2.47,0,0,1-1.76-.7,1,1,0,0,0-1.33-.11,12.21,12.21,0,0,0-2,1.84.81.81,0,0,0,0,1h.4A.66.66,0,0,1,22.34,16Z"/><path id="패스_887" data-name="패스 887" class="cls-4" d="M28.92,32.37a2.25,2.25,0,0,1,.21,1.05.88.88,0,0,0,.52.83A2.59,2.59,0,0,0,28.92,32.37Z"/><path id="패스_888" data-name="패스 888" class="cls-4" d="M41.32,21.08a3.3,3.3,0,0,0,1,.2.59.59,0,0,1,.42.17.79.79,0,0,1,.68.57,12.32,12.32,0,0,1,0,2.19s0,0,0,0a11.3,11.3,0,0,0,0-2.6,1,1,0,0,0-.76-.73h0l-.28-.05a2.36,2.36,0,0,1-2.08-1.25h-.19l.09.28A2.7,2.7,0,0,0,41.32,21.08Z"/><path id="패스_889" data-name="패스 889" class="cls-4" d="M32.93,19.66a3.61,3.61,0,0,1,2.16,3.21,4,4,0,0,1-.1.76,3.29,3.29,0,0,1-5.18,2.45,3.61,3.61,0,0,1-2-2.74v.06a3.9,3.9,0,0,0,1.29,2.85,4.18,4.18,0,0,0,2.33.64h.13a4.14,4.14,0,0,0,4.09-3.64A3.94,3.94,0,0,0,32.93,19.66Z"/><path id="패스_890" data-name="패스 890" class="cls-4" d="M40.8,28.92A2.21,2.21,0,0,1,40,27.39a2.57,2.57,0,0,0,.82,2.41A1.09,1.09,0,0,1,41,30a.79.79,0,0,0-.16-1Z"/><path id="패스_891" data-name="패스 891" class="cls-4" d="M42.55,25.57h0v-.29h0l0,.28Z"/><path id="패스_892" data-name="패스 892" class="cls-4" d="M23.11,17.87h-.45a1.86,1.86,0,0,1,.09.48h.49A2.42,2.42,0,0,0,23.11,17.87Z"/><path id="패스_893" data-name="패스 893" class="cls-4" d="M22.41,16.86a.52.52,0,0,1-.14-.19h-.4l.1.12a2.41,2.41,0,0,1,.42.48h.39A2.41,2.41,0,0,0,22.41,16.86Z"/><path id="패스_894" data-name="패스 894" class="cls-4" d="M40.13,19.54h.18l-.07-.11a2.85,2.85,0,0,1-.13-.48H40A2.35,2.35,0,0,0,40.13,19.54Z"/><path id="패스_895" data-name="패스 895" class="cls-4" d="M22.54,19.54h.56v0a2.75,2.75,0,0,0,.16-.56s0,0,0,0h-.56l-.06.21A2.38,2.38,0,0,1,22.54,19.54Z"/><path id="패스_896" data-name="패스 896" class="cls-4" d="M40,19h.08a2,2,0,0,1,0-.54A3.27,3.27,0,0,0,40,19Z"/><path id="패스_897" data-name="패스 897" class="cls-4" d="M22.78,17.27h-.4a1.83,1.83,0,0,1,.28.6h.45A2.49,2.49,0,0,0,22.78,17.27Z"/><path id="패스_898" data-name="패스 898" class="cls-4" d="M23.27,19a2.36,2.36,0,0,0,0-.6h-.48a2,2,0,0,1-.05.6Z"/><path id="패스_899" data-name="패스 899" class="cls-4" d="M37.34,14.8a2.11,2.11,0,0,0,.3-.16A2.11,2.11,0,0,1,37.34,14.8Z"/><path id="패스_900" data-name="패스 900" class="cls-4" d="M28.12,14.82l.28-.14Z"/><path id="패스_901" data-name="패스 901" class="cls-4" d="M30.25,34.36a3.65,3.65,0,0,0,0-.47.6.6,0,0,1-.54-.6,2.59,2.59,0,0,0-.43-1.4,3,3,0,0,0-1-.67A2.81,2.81,0,0,0,27.11,31h0a3.33,3.33,0,0,0-2.42,1,1.06,1.06,0,0,0,.39-.24,2.51,2.51,0,0,1,1.8-.71H27a2.24,2.24,0,0,1,1.57.73,2.47,2.47,0,0,1,.38.59,2.58,2.58,0,0,1,.73,1.88.75.75,0,0,0,.29.09l.32,0h0Z"/><path id="패스_902" data-name="패스 902" class="cls-4" d="M30.32,11.82a11.55,11.55,0,0,1,2.2,0,.61.61,0,0,1,.55.59A2.74,2.74,0,0,0,34.83,15a3.14,3.14,0,0,0,1.09.2,3.23,3.23,0,0,0,1.3-.28,3,3,0,0,1-1.06.2,2.45,2.45,0,0,1-1-.19,2.6,2.6,0,0,1-1.6-2.55.66.66,0,0,0-.59-.69,12.44,12.44,0,0,0-1.37-.08c-.43,0-.87,0-1.31.07a.66.66,0,0,0-.58.68,2.66,2.66,0,0,1-.36,1.4,2.67,2.67,0,0,0,.39-1.31A.6.6,0,0,1,30.32,11.82Z"/><path id="패스_903" data-name="패스 903" class="cls-4" d="M22.2,25.76A2.62,2.62,0,0,1,23,26.82a2.69,2.69,0,0,1,.18.83,2.53,2.53,0,0,0-.16-1.51A2.88,2.88,0,0,0,22.1,25a3.2,3.2,0,0,0-1.45-.38h-.09a.18.18,0,0,1-.17-.11v-.08a.59.59,0,0,1-.57-.53,10.69,10.69,0,0,1,0-2s0,0,0,0a11.92,11.92,0,0,0,0,2.67.89.89,0,0,0,.08.17,1.17,1.17,0,0,0,.49.11A2.31,2.31,0,0,1,22.2,25.76Z"/><path id="패스_904" data-name="패스 904" class="cls-4" d="M32.93,19.66a3.93,3.93,0,0,1,2.67,3.6,2.6,2.6,0,0,0,0-.39,4.08,4.08,0,0,0-1.88-3.32H32.62A1.92,1.92,0,0,1,32.93,19.66Z"/><path id="패스_905" data-name="패스 905" class="cls-4" d="M39.71,19.57a2.94,2.94,0,0,0,1.61,1.51,2.67,2.67,0,0,1-1.1-1.25l-.09-.28h-.42Z"/><path id="패스_906" data-name="패스 906" class="cls-4" d="M22.5,16.58a.58.58,0,0,1-.15-.62h0a.66.66,0,0,0-.08.71h.31Z"/><path id="패스_907" data-name="패스 907" class="cls-4" d="M29.28,13.88l0,0h0Z"/><path id="패스_908" data-name="패스 908" class="cls-4" d="M27.76,23.4v-.06c0-.14,0-.29-.05-.44a3.6,3.6,0,0,1,2.47-3.35h-.93a4.52,4.52,0,0,0-2.08,3.56,4.11,4.11,0,0,0,1.88,3.14A3.92,3.92,0,0,1,27.76,23.4Z"/><path id="패스_909" data-name="패스 909" class="cls-4" d="M24.81,14.28a3.15,3.15,0,0,0,2.08.79h.05a2.87,2.87,0,0,0,1-.19l.12-.06a2.53,2.53,0,0,1-.94.18,2.74,2.74,0,0,1-2-.84.67.67,0,0,0-.9-.08l-.17.15A.6.6,0,0,1,24.81,14.28Z"/><path id="패스_910" data-name="패스 910" class="cls-4" d="M39.07,14.16a.67.67,0,0,0-.9.07l-.27.23a1.7,1.7,0,0,0,.14-.1.6.6,0,0,1,.77,0,10.9,10.9,0,0,1,1.55,1.49.61.61,0,0,1,.1.61l0,0c-.07.06-.12.13-.18.19H41a1.47,1.47,0,0,0,.1-.22A.68.68,0,0,0,41,16,11.59,11.59,0,0,0,39.07,14.16Z"/><path id="패스_911" data-name="패스 911" class="cls-4" d="M36.08,31.07a3.08,3.08,0,0,0-.68.08,2.12,2.12,0,0,1,.44,0,2.58,2.58,0,0,1,1.77.7,1,1,0,0,0,.92.28h0A3.43,3.43,0,0,0,36.08,31.07Z"/><path id="패스_912" data-name="패스 912" class="cls-4" d="M23.74,31.86a1,1,0,0,0,.8.17,9.35,9.35,0,0,1-1.39-1.35c-.26-.26-.51-.52-.74-.79a.54.54,0,0,1-.07-.13.63.63,0,0,0-.16.64A12,12,0,0,0,23.74,31.86Z"/><path id="패스_913" data-name="패스 913" class="cls-4" d="M32.91,34.29a.89.89,0,0,0,.63-.85A2.28,2.28,0,0,1,35.2,31.2l-.3.09A3.21,3.21,0,0,0,32.91,34.29Z"/><path id="패스_914" data-name="패스 914" class="cls-4" d="M42.94,24a.66.66,0,0,1-.06.2c0,.16,0,.32,0,.47s0,.05-.1.05H42.6a3.29,3.29,0,0,0-3,2,3.24,3.24,0,0,0-.16.53,2.54,2.54,0,0,0,.81,2,.59.59,0,0,1,0,.82.94.94,0,0,1-.1.1,3,3,0,0,0,.24.26,11.78,11.78,0,0,1-1.78,1.75,1.11,1.11,0,0,0,.27-.13,11.84,11.84,0,0,0,2-1.85A.75.75,0,0,0,41,30a.51.51,0,0,0-.13-.16A2.61,2.61,0,0,1,40,27.39a2.2,2.2,0,0,1,.17-1A2.43,2.43,0,0,1,42.46,25l0,.32h.05V25h0a.93.93,0,0,0,.9-.76,11.45,11.45,0,0,0,0-2.19.77.77,0,0,0-.68-.56.54.54,0,0,1,.18.36A10.73,10.73,0,0,1,42.94,24Z"/><path id="패스_915" data-name="패스 915" class="cls-4" d="M39.56,18a3.06,3.06,0,0,0-.05.32h.56a2.4,2.4,0,0,1,.1-.48H39.6C39.59,17.92,39.57,18,39.56,18Z"/><path id="패스_916" data-name="패스 916" class="cls-4" d="M23.27,18l0-.1h-.13a2.42,2.42,0,0,1,.13.48h.08A2.47,2.47,0,0,0,23.27,18Z"/><path id="패스_917" data-name="패스 917" class="cls-4" d="M22.58,16.67h-.31a.94.94,0,0,0,.14.19,2.41,2.41,0,0,1,.37.41H23A2.9,2.9,0,0,0,22.58,16.67Z"/><path id="패스_918" data-name="패스 918" class="cls-4" d="M30.68,19a4.44,4.44,0,0,0-1.42.6h.92a3.48,3.48,0,0,1,1.15-.2h.14a3.48,3.48,0,0,1,1.15.2h1.15a4,4,0,0,0-1.48-.6Z"/><path id="패스_919" data-name="패스 919" class="cls-4" d="M40.16,16.82s0,0,0,0a2.42,2.42,0,0,0-.29.42h.62a2.93,2.93,0,0,1,.37-.42.65.65,0,0,0,.15-.18H40.3A1,1,0,0,0,40.16,16.82Z"/><path id="패스_920" data-name="패스 920" class="cls-4" d="M23.28,19h0v0Z"/><path id="패스_921" data-name="패스 921" class="cls-4" d="M40.13,19.54a2.35,2.35,0,0,1-.1-.6h-.49a2.41,2.41,0,0,0,.16.6Z"/><path id="패스_922" data-name="패스 922" class="cls-4" d="M39.54,19H40a3.27,3.27,0,0,1,0-.54v-.06h-.56A3,3,0,0,0,39.54,19Z"/><path id="패스_923" data-name="패스 923" class="cls-4" d="M23,17.27h-.24a2.89,2.89,0,0,1,.33.6h.13A3.07,3.07,0,0,0,23,17.27Z"/><path id="패스_924" data-name="패스 924" class="cls-4" d="M32.29,18.94a4.3,4.3,0,0,0-.88-.08,4,4,0,0,0-.49,0l-.24,0Z"/><path id="패스_925" data-name="패스 925" class="cls-4" d="M23.32,18.35h-.08a3,3,0,0,1,0,.6h0A2.43,2.43,0,0,0,23.32,18.35Z"/><path id="패스_926" data-name="패스 926" class="cls-4" d="M39.66,17.66l-.06.21h.58a1.88,1.88,0,0,1,.3-.6h-.63A3.54,3.54,0,0,0,39.66,17.66Z"/><path id="패스_863" data-name="패스 863" class="cls-4" d="M12.4,43.23H51.33a.26.26,0,0,0,.26-.26v-.22H12.13V43a.26.26,0,0,0,.25.24Z"/></g></svg>