<svg id="레이어_1" data-name="레이어 1" xmlns="http://www.w3.org/2000/svg" viewBox="0 0 62 62"><defs><style>.cls-1{fill:none;}.cls-2{fill:#eaa786;}.cls-3{fill:#f4eee8;}.cls-4{fill:#080240;}</style></defs><g id="그룹_76" data-name="그룹 76"><g id="그룹_3" data-name="그룹 3"><rect id="Rectangle_Copy_2" data-name="Rectangle Copy 2" class="cls-1" x="-2.05" width="62" height="62"/></g><path id="Clip_4-2" data-name="Clip 4-2" class="cls-1" d="M33.27,54.22H64.05v-46H2.48v46H64.05V46.74H2.48v7.48Z"/><g id="그룹_66" data-name="그룹 66"><ellipse id="타원_13" data-name="타원 13" class="cls-2" cx="26.95" cy="22.5" rx="10" ry="10.5"/><ellipse id="타원_14" data-name="타원 14" class="cls-3" cx="26.45" cy="23" rx="3.5" ry="4"/></g><path id="패스_842" data-name="패스 842" class="cls-1" d="M44.13,19.84H38.36a1.31,1.31,0,0,0,.38.06,2.18,2.18,0,0,1,2.17,1.72,11.41,11.41,0,0,1,0,2.86,2.07,2.07,0,0,1-2,1.76h-.2a1.16,1.16,0,0,0-1,.66A1,1,0,0,0,37.91,28a1.91,1.91,0,0,1,.69,1.32,1.88,1.88,0,0,1-.45,1.42,11.94,11.94,0,0,1-2.1,2,2,2,0,0,1-.54.29,1.32,1.32,0,0,1-.39.1,2.12,2.12,0,0,1-1.84-.6,1.29,1.29,0,0,0-.9-.35h0a1.09,1.09,0,0,0-.75.3,1.08,1.08,0,0,0-.31.74A2,2,0,0,1,30.4,35a1.2,1.2,0,0,1-.78.41,11.69,11.69,0,0,1-1.32.08h0a10.7,10.7,0,0,1-1.39-.09,1,1,0,0,1-.29-.07h0a2,2,0,0,1-1.83-2.08,1,1,0,0,0-.27-.75,1,1,0,0,0-.72-.34,1.33,1.33,0,0,0-1,.36,2.19,2.19,0,0,1-.72.47L21.9,33l-.17,0-.17,0a2.13,2.13,0,0,1-1.56-.4,12,12,0,0,1-2.05-2A2,2,0,0,1,18.18,28a1,1,0,0,0,.28-1.14,1.06,1.06,0,0,0-.95-.65,2.46,2.46,0,0,1-1.46-.44,1.86,1.86,0,0,1-.81-1.32,11,11,0,0,1,0-2.81,2,2,0,0,1,2-1.76H12.92a1.74,1.74,0,0,0-1.74,1.69V41.1H45.9V21.52A1.76,1.76,0,0,0,44.13,19.84Z"/><path id="패스_843" data-name="패스 843" class="cls-1" d="M28.08,25.32a2.37,2.37,0,0,0,2.42-2.27,2.32,2.32,0,0,0-2.39-2.25H28a2.35,2.35,0,0,0-2.34,2.28A2.32,2.32,0,0,0,28.08,25.32Z"/><path id="패스_851" data-name="패스 851" class="cls-1" d="M8.25,45.38h40.6a2.76,2.76,0,0,0,1.72-.63,2.79,2.79,0,0,0,.72-.88H5.83a2.9,2.9,0,0,0,.71.88A2.69,2.69,0,0,0,8.25,45.38Z"/><path id="패스_860" data-name="패스 860" class="cls-4" d="M10,21.51a2.9,2.9,0,0,1,3-2.83h5.59a.87.87,0,0,0-.2-.46H13a3.39,3.39,0,0,0-3.49,3.29V41.1H10Z"/><path id="패스_861" data-name="패스 861" class="cls-4" d="M44.11,18.68a2.91,2.91,0,0,1,3,2.82V41.1h.54V21.52a3.41,3.41,0,0,0-3.48-3.3H37.88a1,1,0,0,0-.24.47Z"/><path id="패스_862" data-name="패스 862" class="cls-4" d="M48.73,42.71h3.39a.58.58,0,0,1,.56.72,4.07,4.07,0,0,1-1.37,2.21,3.84,3.84,0,0,1-2.45.89H8.26a3.82,3.82,0,0,1-2.46-.9,4.07,4.07,0,0,1-1.36-2.21A.58.58,0,0,1,5,42.71H8.36l0-.22v-.24H4.13a.23.23,0,0,0-.2.22A4.44,4.44,0,0,0,8.28,47H48.86a4.44,4.44,0,0,0,4.34-4.5.24.24,0,0,0-.21-.24H48.77v.23A1.57,1.57,0,0,1,48.73,42.71Z"/><path id="패스_864" data-name="패스 864" class="cls-4" d="M8.36,42.71H9a.86.86,0,0,1-.06-.23v-.23H8.33v.25A.76.76,0,0,0,8.36,42.71Z"/><path id="패스_865" data-name="패스 865" class="cls-4" d="M48.13,42.71h.6a.85.85,0,0,0,0-.23v-.23h-.58v.23A.59.59,0,0,1,48.13,42.71Z"/><path id="패스_866" data-name="패스 866" class="cls-4" d="M47.6,42.47a.25.25,0,0,1-.25.24H9.74a.23.23,0,0,1-.25-.21v-.25H8.91v.23a.59.59,0,0,0,.05.23H48.13a.59.59,0,0,0,0-.23v-.23H47.6Z"/><path id="패스_868" data-name="패스 868" class="cls-4" d="M19.61,27.79a2.16,2.16,0,0,1-.68,1.05.79.79,0,0,0-.24.82,1.28,1.28,0,0,1,.29-.41A1.93,1.93,0,0,0,19.61,27.79Z"/><path id="패스_869" data-name="패스 869" class="cls-4" d="M38.71,21.05l.27.05H39a1.17,1.17,0,0,0-.26,0Z"/><path id="패스_870" data-name="패스 870" class="cls-4" d="M28.08,26.48H28a3.32,3.32,0,0,1-1.45-.34,3.34,3.34,0,0,0,1.86.59,3.21,3.21,0,0,0,3.14-2.94A3.5,3.5,0,0,1,28.08,26.48Z"/><path id="패스_871" data-name="패스 871" class="cls-4" d="M17.32,21a.85.85,0,0,0-.93.74.34.34,0,0,1,0,.1,1.22,1.22,0,0,1,1.17-.8,2.08,2.08,0,0,0,2-1.2h-.06A2.41,2.41,0,0,1,17.32,21Z"/><path id="패스_872" data-name="패스 872" class="cls-4" d="M19.53,19.84a1.73,1.73,0,0,0,.11-.37,1.59,1.59,0,0,1-.07.2,1.28,1.28,0,0,1-.1.17Z"/><path id="패스_873" data-name="패스 873" class="cls-4" d="M17.45,24.55v.08a.25.25,0,0,0,.17.11h.08a3,3,0,0,1,1.4.36,2.73,2.73,0,0,0-1.63-.54Z"/><path id="패스_874" data-name="패스 874" class="cls-4" d="M35.16,31.34a.59.59,0,0,1-.74,0,3.08,3.08,0,0,0-2-.77,2.75,2.75,0,0,0-2.27,1.15,2.5,2.5,0,0,0-.49,1.44.58.58,0,0,1-.52.56c-.34,0-.69,0-1,0A10,10,0,0,1,27,33.69h0c0,.15,0,.3,0,.46h0a7.45,7.45,0,0,0,1.06.05h0q.64,0,1.29-.06a.66.66,0,0,0,.2-.06,3.11,3.11,0,0,1,1.93-2.9l.28-.08.2-.05a2.84,2.84,0,0,1,.66-.08A3.32,3.32,0,0,1,35,32l0,0,.12,0a10.52,10.52,0,0,0,1.72-1.68c-.08-.08-.15-.17-.22-.25A10.74,10.74,0,0,1,35.16,31.34Z"/><path id="패스_875" data-name="패스 875" class="cls-4" d="M24,30.89a3,3,0,0,1,1.12.22,3.18,3.18,0,0,1,1,.65L26,31.67a2.76,2.76,0,0,0-1.25-1,2.92,2.92,0,0,0-1-.2h0a3,3,0,0,0-2,.77.58.58,0,0,1-.75,0,10,10,0,0,1-.78-.68,9.83,9.83,0,0,0,1.35,1.31l.12,0a3.31,3.31,0,0,1,2.34-1Z"/><path id="패스_876" data-name="패스 876" class="cls-4" d="M36.68,17.06h0l.18-.18,0,0a.86.86,0,0,1-.13.2Z"/><path id="패스_877" data-name="패스 877" class="cls-4" d="M26,19.84h-.22A4,4,0,0,0,24,23.08c0,.07,0,.13,0,.2A4.37,4.37,0,0,1,26,19.84Z"/><path id="패스_878" data-name="패스 878" class="cls-4" d="M38.67,24.61h0a2.91,2.91,0,0,0-2.59,1.65,2.56,2.56,0,0,0-.2.94,5,5,0,0,1,.16-.51,3.18,3.18,0,0,1,2.89-1.9h.14c.07,0,.1,0,.1-.05s0-.3,0-.45A.59.59,0,0,1,38.67,24.61Z"/><path id="패스_879" data-name="패스 879" class="cls-4" d="M36.26,17.64a2.9,2.9,0,0,1,.27-.41,3,3,0,0,0-.29.41Z"/><path id="패스_880" data-name="패스 880" class="cls-4" d="M26,19.84a4.26,4.26,0,0,1,1.37-.58h-.17a3.91,3.91,0,0,0-1.42.58Z"/><path id="패스_881" data-name="패스 881" class="cls-4" d="M36.56,17.2l.13-.14h0Z"/><path id="패스_882" data-name="패스 882" class="cls-4" d="M27.63,19.22l-.4,0h.17Z"/><path id="패스_883" data-name="패스 883" class="cls-4" d="M36.07,18c.06-.13.12-.26.19-.38h0C36.18,17.76,36.12,17.89,36.07,18Z"/><path id="패스_884" data-name="패스 884" class="cls-4" d="M17.55,21a1.21,1.21,0,0,0-1.17.8,11,11,0,0,0,0,2.43.74.74,0,0,0,.32.51.91.91,0,0,0,.26.13.51.51,0,0,1-.07-.15,11.22,11.22,0,0,1,0-2.59v0c0-.06,0-.12,0-.17a.58.58,0,0,1,.56-.52A3.3,3.3,0,0,0,19.07,21a2.61,2.61,0,0,0,1-1.13h-.54A2.06,2.06,0,0,1,17.55,21Z"/><path id="패스_885" data-name="패스 885" class="cls-4" d="M19.34,29.71a.59.59,0,0,1,.1-.67,2.59,2.59,0,0,0,.74-1.34v0a2.81,2.81,0,0,0-.18-.8,2.53,2.53,0,0,0-.8-1,2.48,2.48,0,0,1,.32.54,2.17,2.17,0,0,1,.08,1.4A2,2,0,0,1,19,29.25a1.22,1.22,0,0,0-.29.41.89.89,0,0,0,.15.29c.11.13.24.24.35.37A.62.62,0,0,1,19.34,29.71Z"/><path id="패스_886" data-name="패스 886" class="cls-4" d="M19.35,16.38h0a.56.56,0,0,1,.11-.2A11,11,0,0,1,21,14.74l.05,0c.06,0,.11-.1.16-.14a.66.66,0,0,1,.87.07,2.64,2.64,0,0,0,1.94.81,2.36,2.36,0,0,0,.91-.16h0l.27-.13A3,3,0,0,0,26,14.4v0a1.4,1.4,0,0,0,.1-.16,2.4,2.4,0,0,0,.35-1.35.64.64,0,0,1,.57-.65c.42,0,.84-.07,1.26-.07a11.69,11.69,0,0,1,1.32.08.64.64,0,0,1,.57.66,2.52,2.52,0,0,0,1.55,2.47,2.44,2.44,0,0,0,.93.18,2.76,2.76,0,0,0,1-.2l.12-.06a2.69,2.69,0,0,0,.29-.16l.24-.18a1.88,1.88,0,0,0,.26-.22.64.64,0,0,1,.87-.07,10.87,10.87,0,0,1,1.83,1.82.68.68,0,0,1,.13.39.81.81,0,0,0-.14-.72,11.75,11.75,0,0,0-1.87-1.79,1,1,0,0,0-1.26.1,2.5,2.5,0,0,1-1.74.69h-.11a2.19,2.19,0,0,1-2.09-2.29.86.86,0,0,0-.79-.88,12.45,12.45,0,0,0-2.66,0,.88.88,0,0,0-.81.88,2.2,2.2,0,0,1-1.42,2.1,2.4,2.4,0,0,1-.8.14,2.46,2.46,0,0,1-1.7-.68,1,1,0,0,0-1.28-.11,11.49,11.49,0,0,0-1.9,1.79.78.78,0,0,0,0,1h.39A.64.64,0,0,1,19.35,16.38Z"/><path id="패스_887" data-name="패스 887" class="cls-4" d="M25.7,32.23a2.21,2.21,0,0,1,.21,1,.83.83,0,0,0,.5.8A2.54,2.54,0,0,0,25.7,32.23Z"/><path id="패스_888" data-name="패스 888" class="cls-4" d="M37.68,21.32a2.79,2.79,0,0,0,1,.2.56.56,0,0,1,.4.17.75.75,0,0,1,.65.55,11.44,11.44,0,0,1,0,2.11s0,0,0,0a10.54,10.54,0,0,0,0-2.51,1,1,0,0,0-.74-.7h0l-.27,0a2.3,2.3,0,0,1-2-1.21h-.17a2.76,2.76,0,0,0,.08.27A2.52,2.52,0,0,0,37.68,21.32Z"/><path id="패스_889" data-name="패스 889" class="cls-4" d="M29.57,20a3.51,3.51,0,0,1,2.09,3.1,4.54,4.54,0,0,1-.1.74,3.22,3.22,0,0,1-3.15,2.94,3.35,3.35,0,0,1-1.86-.58,3.5,3.5,0,0,1-2-2.64v.06a3.76,3.76,0,0,0,1.24,2.75,4.1,4.1,0,0,0,2.26.62h.11a4,4,0,0,0,3.95-3.52A3.8,3.8,0,0,0,29.57,20Z"/><path id="패스_890" data-name="패스 890" class="cls-4" d="M37.17,28.9a2.19,2.19,0,0,1-.76-1.48,2.52,2.52,0,0,0,.79,2.33.48.48,0,0,1,.12.16.74.74,0,0,0,.13-.48A.79.79,0,0,0,37.17,28.9Z"/><path id="패스_891" data-name="패스 891" class="cls-4" d="M38.87,25.66h0v-.28h0l0,.27Z"/><path id="패스_892" data-name="패스 892" class="cls-4" d="M20.09,18.22h-.44a1.87,1.87,0,0,1,.09.46h.47A3.9,3.9,0,0,0,20.09,18.22Z"/><path id="패스_893" data-name="패스 893" class="cls-4" d="M19.42,17.25a.62.62,0,0,1-.14-.19h-.39l.09.12a2,2,0,0,1,.4.46h.38A2.57,2.57,0,0,0,19.42,17.25Z"/><path id="패스_894" data-name="패스 894" class="cls-4" d="M36.52,19.84h.18a.67.67,0,0,1-.06-.12,1.86,1.86,0,0,1-.13-.46h-.08A2.91,2.91,0,0,0,36.52,19.84Z"/><path id="패스_895" data-name="패스 895" class="cls-4" d="M19.53,19.84h.56a3.68,3.68,0,0,0,.16-.54v0H19.7l-.06.21A1.58,1.58,0,0,1,19.53,19.84Z"/><path id="패스_896" data-name="패스 896" class="cls-4" d="M36.43,19.26h.08a1.76,1.76,0,0,1,0-.51A2.92,2.92,0,0,0,36.43,19.26Z"/><path id="패스_897" data-name="패스 897" class="cls-4" d="M19.76,17.64h-.37a2.34,2.34,0,0,1,.26.58h.44A2.56,2.56,0,0,0,19.76,17.64Z"/><path id="패스_898" data-name="패스 898" class="cls-4" d="M20.24,19.26a2.82,2.82,0,0,0,0-.58h-.47a2.24,2.24,0,0,1,0,.58Z"/><path id="패스_899" data-name="패스 899" class="cls-4" d="M33.83,15.27a2.69,2.69,0,0,0,.29-.16A2.69,2.69,0,0,1,33.83,15.27Z"/><path id="패스_900" data-name="패스 900" class="cls-4" d="M24.93,15.27l.27-.13Z"/><path id="패스_901" data-name="패스 901" class="cls-4" d="M27,34.15a2.34,2.34,0,0,0,0-.46.58.58,0,0,1-.52-.57A2.47,2.47,0,0,0,26,31.76a3.18,3.18,0,0,0-1-.65A3.06,3.06,0,0,0,24,30.89h0a3.28,3.28,0,0,0-2.34,1,1,1,0,0,0,.38-.23A2.43,2.43,0,0,1,23.7,31h.11a2.2,2.2,0,0,1,1.52.71,2.43,2.43,0,0,1,.37.57,2.49,2.49,0,0,1,.7,1.82,1,1,0,0,0,.29.08l.31,0h0Z"/><path id="패스_902" data-name="패스 902" class="cls-4" d="M27.06,12.38a11.55,11.55,0,0,1,2.12,0,.57.57,0,0,1,.52.56,2.65,2.65,0,0,0,1.71,2.45,2.87,2.87,0,0,0,1.05.19,3,3,0,0,0,1.25-.27,2.54,2.54,0,0,1-1,.2,2.21,2.21,0,0,1-.92-.17,2.54,2.54,0,0,1-1.56-2.47.62.62,0,0,0-.56-.66,11.69,11.69,0,0,0-1.32-.08,10.81,10.81,0,0,0-1.27.07.63.63,0,0,0-.56.65,2.57,2.57,0,0,1-.35,1.35A2.48,2.48,0,0,0,26.53,13,.58.58,0,0,1,27.06,12.38Z"/><path id="패스_903" data-name="패스 903" class="cls-4" d="M19.21,25.84a2.62,2.62,0,0,1,.8,1,2.44,2.44,0,0,1,.17.8A2.44,2.44,0,0,0,20,26.21a2.85,2.85,0,0,0-.92-1.12,3.23,3.23,0,0,0-1.4-.36h-.08a.19.19,0,0,1-.17-.1v-.08a.57.57,0,0,1-.55-.52,9.84,9.84,0,0,1,0-1.88s0,0,0,0a11.22,11.22,0,0,0,0,2.59,1.09,1.09,0,0,0,.08.15,1.08,1.08,0,0,0,.47.11A2.27,2.27,0,0,1,19.21,25.84Z"/><path id="패스_904" data-name="패스 904" class="cls-4" d="M29.57,20a3.8,3.8,0,0,1,2.58,3.47c0-.12,0-.24.05-.37a4,4,0,0,0-1.81-3.21H29.27Z"/><path id="패스_905" data-name="패스 905" class="cls-4" d="M36.12,19.87a2.81,2.81,0,0,0,1.56,1.45,2.57,2.57,0,0,1-1.06-1.2,1.31,1.31,0,0,1-.09-.28h-.41Z"/><path id="패스_906" data-name="패스 906" class="cls-4" d="M19.5,17a.58.58,0,0,1-.15-.6h0a.64.64,0,0,0-.07.69h.3Z"/><path id="패스_907" data-name="패스 907" class="cls-4" d="M26.05,14.37l0,0h0Z"/><path id="패스_908" data-name="패스 908" class="cls-4" d="M24.58,23.57v-.06c0-.14,0-.28,0-.43a3.51,3.51,0,0,1,2.38-3.24H26a4.4,4.4,0,0,0-2,3.44,4,4,0,0,0,1.81,3A3.76,3.76,0,0,1,24.58,23.57Z"/><path id="패스_909" data-name="패스 909" class="cls-4" d="M21.73,14.76a3.07,3.07,0,0,0,2,.76h0a2.87,2.87,0,0,0,1-.18l.12-.06a2.53,2.53,0,0,1-.91.17,2.65,2.65,0,0,1-1.93-.81.64.64,0,0,0-.87-.07c-.06,0-.11.1-.16.14A.56.56,0,0,1,21.73,14.76Z"/><path id="패스_910" data-name="패스 910" class="cls-4" d="M35.5,14.64a.64.64,0,0,0-.87.07l-.26.22.13-.1a.58.58,0,0,1,.74,0,10.77,10.77,0,0,1,1.5,1.44.6.6,0,0,1,.1.6l0,0c-.07.06-.12.13-.18.19h.67a.85.85,0,0,0,.09-.22.56.56,0,0,0-.13-.39A11.13,11.13,0,0,0,35.5,14.64Z"/><path id="패스_911" data-name="패스 911" class="cls-4" d="M32.61,31a3,3,0,0,0-.66.08,2.09,2.09,0,0,1,.43,0,2.46,2.46,0,0,1,1.71.68A1,1,0,0,0,35,32h0A3.34,3.34,0,0,0,32.61,31Z"/><path id="패스_912" data-name="패스 912" class="cls-4" d="M20.7,31.74a1,1,0,0,0,.77.16,9.83,9.83,0,0,1-1.35-1.31,10.28,10.28,0,0,1-.71-.76.35.35,0,0,1-.07-.12.6.6,0,0,0-.15.61A11.28,11.28,0,0,0,20.7,31.74Z"/><path id="패스_913" data-name="패스 913" class="cls-4" d="M29.55,34.08a.86.86,0,0,0,.61-.82,2.23,2.23,0,0,1,.66-1.62,2.27,2.27,0,0,1,.94-.54c-.09,0-.19,0-.28.08A3.1,3.1,0,0,0,29.55,34.08Z"/><path id="패스_914" data-name="패스 914" class="cls-4" d="M39.24,24.09a.66.66,0,0,1-.06.2c0,.15,0,.3,0,.45s0,.05-.1.05h-.14A3.17,3.17,0,0,0,36,26.69a3.13,3.13,0,0,0-.16.52,2.62,2.62,0,0,0,0,.55,2.58,2.58,0,0,0,.74,1.35.58.58,0,0,1,0,.8l-.09.09.23.25a11.45,11.45,0,0,1-1.72,1.69.91.91,0,0,0,.26-.13A11.49,11.49,0,0,0,37.26,30l.06-.11a.61.61,0,0,0-.12-.16,2.51,2.51,0,0,1-.79-2.33,2.08,2.08,0,0,1,.17-1,2.34,2.34,0,0,1,2.19-1.33l0,.3h0v-.3h0a.9.9,0,0,0,.88-.73,10.72,10.72,0,0,0,0-2.12.72.72,0,0,0-.65-.54.51.51,0,0,1,.17.35A10,10,0,0,1,39.24,24.09Z"/><path id="패스_915" data-name="패스 915" class="cls-4" d="M36,18.37c0,.11,0,.21,0,.31h.54a2.52,2.52,0,0,1,.1-.46H36A.88.88,0,0,0,36,18.37Z"/><path id="패스_916" data-name="패스 916" class="cls-4" d="M20.24,18.32l0-.1h-.13a2.52,2.52,0,0,1,.13.47h.08A2.2,2.2,0,0,0,20.24,18.32Z"/><path id="패스_917" data-name="패스 917" class="cls-4" d="M19.58,17.06h-.3a.62.62,0,0,0,.14.19,3.25,3.25,0,0,1,.35.39H20A2.68,2.68,0,0,0,19.58,17.06Z"/><path id="패스_918" data-name="패스 918" class="cls-4" d="M27.4,19.26a4.26,4.26,0,0,0-1.37.58h.89a3.46,3.46,0,0,1,1.11-.2h.13a3.46,3.46,0,0,1,1.11.2h1.12A4.23,4.23,0,0,0,29,19.26Z"/><path id="패스_919" data-name="패스 919" class="cls-4" d="M36.56,17.2l0,0a3.62,3.62,0,0,0-.27.41h.6a2.23,2.23,0,0,1,.35-.4.62.62,0,0,0,.14-.18h-.66Z"/><path id="패스_920" data-name="패스 920" class="cls-4" d="M20.25,19.26h0v0Z"/><path id="패스_921" data-name="패스 921" class="cls-4" d="M36.53,19.84a2.33,2.33,0,0,1-.09-.58H36a2.38,2.38,0,0,0,.16.58Z"/><path id="패스_922" data-name="패스 922" class="cls-4" d="M36,19.26h.48a2.92,2.92,0,0,1,0-.51v-.07h-.54A2.24,2.24,0,0,0,36,19.26Z"/><path id="패스_923" data-name="패스 923" class="cls-4" d="M20,17.64h-.24a2.56,2.56,0,0,1,.33.58h.12A2.86,2.86,0,0,0,20,17.64Z"/><path id="패스_924" data-name="패스 924" class="cls-4" d="M29,19.26a4.08,4.08,0,0,0-.85-.08l-.48,0-.23,0Z"/><path id="패스_925" data-name="패스 925" class="cls-4" d="M20.29,18.68h-.08a2.26,2.26,0,0,1,0,.58h0A2.24,2.24,0,0,0,20.29,18.68Z"/><path id="패스_926" data-name="패스 926" class="cls-4" d="M36.07,18c0,.06,0,.13,0,.2h.55a2,2,0,0,1,.29-.58h-.6C36.19,17.76,36.13,17.89,36.07,18Z"/><path id="패스_863" data-name="패스 863" class="cls-4" d="M9.74,42.71H47.35a.25.25,0,0,0,.25-.24v-.22H9.49v.23a.23.23,0,0,0,.24.23Z"/></g></svg>