<svg id="Layer_1" data-name="Layer 1" xmlns="http://www.w3.org/2000/svg" viewBox="0 0 64 62"><defs><style>.cls-1{fill:#fff;}.cls-2{fill:#fab08b;}</style></defs><circle id="타원_19-2" data-name="타원 19-2" class="cls-1" cx="32.34" cy="31" r="25"/><g id="패스_1156" data-name="패스 1156"><path class="cls-2" d="M39.34,42.42l-7-7.24-7,7.24-2.57-1V19.12H41.91V41.38Z"/><path class="cls-2" d="M24.27,20.62V41.38L32.34,33l8.07,8.36V20.62H24.27m0-3H40.41a3,3,0,0,1,3,3V41.38a3,3,0,0,1-5.15,2.09l-5.92-6.13-5.92,6.13a3,3,0,0,1-2.16.91,3,3,0,0,1-3-3V20.62A3,3,0,0,1,24.27,17.62Z"/></g></svg>