<svg id="레이어_1" data-name="레이어 1" xmlns="http://www.w3.org/2000/svg" viewBox="0 0 62 62"><defs><style>.cls-1{fill:none;}.cls-2{fill:#eaa786;}.cls-3{fill:#080240;}</style></defs><rect id="Rectangle_Copy_3" data-name="Rectangle Copy 3" class="cls-1" width="62" height="62"/><path id="Fill_4" data-name="Fill 4" class="cls-2" d="M31.07,23.09l-7.1,2-.32,7.36L30.56,35l4.59-5.78Z"/><g id="그룹_99" data-name="그룹 99"><path id="패스_1034" data-name="패스 1034" class="cls-1" d="M47.78,35.21a17.55,17.55,0,0,0,.56-4.27c0-.6,0-1.2-.1-1.8L45.8,32.22Z"/><path id="패스_1035" data-name="패스 1035" class="cls-1" d="M36.88,49.87h13v-13A20,20,0,0,1,36.88,49.87Z"/><path id="패스_1036" data-name="패스 1036" class="cls-1" d="M31.71,48.3a17.22,17.22,0,0,0,5.66-1.21l-3.15-1.48Z"/><path id="패스_1037" data-name="패스 1037" class="cls-1" d="M31.41,37.62l-5-1.86-4,3.87.64,6.15a1.07,1.07,0,0,1-.1.61,17.36,17.36,0,0,0,5.52,1.75l4.12-4.39Z"/><path id="패스_1038" data-name="패스 1038" class="cls-1" d="M42.66,19l-6,1.16-2.3,5.53,3.06,4.61,6.35.61,3.8-4.77s.05,0,.07-.07a17.43,17.43,0,0,0-4.38-7.38A1.23,1.23,0,0,1,42.66,19Z"/><path id="패스_1039" data-name="패스 1039" class="cls-1" d="M12,36.9v13H25A19.93,19.93,0,0,1,12,36.9Z"/><path id="패스_1040" data-name="패스 1040" class="cls-1" d="M17.47,16.37a1.22,1.22,0,0,1,.59-.53A19.75,19.75,0,0,1,25,12H12V25A19.78,19.78,0,0,1,17.47,16.37Z"/><path id="패스_1041" data-name="패스 1041" class="cls-1" d="M49.87,25V12h-13A19.93,19.93,0,0,1,49.87,25Z"/><path id="패스_1042" data-name="패스 1042" class="cls-1" d="M41,16.78a17.17,17.17,0,0,0-6.69-2.9l2.1,3.78Z"/><path id="패스_1043" data-name="패스 1043" class="cls-1" d="M26.57,26.27l5.48-1.52,2.34-5.65-3-5.41-.06-.13c-.14,0-.27,0-.41,0h0a17.26,17.26,0,0,0-11.11,4l.56,5.4Z"/><path id="패스_1044" data-name="패스 1044" class="cls-1" d="M15.66,39.26a17.55,17.55,0,0,0,4.85,5.58L20,40.18Z"/><path id="패스_1045" data-name="패스 1045" class="cls-1" d="M37.23,32.7,33.79,37,35,43.28l5.12,2.4a17.54,17.54,0,0,0,6.63-7.56l-3.18-4.8Z"/><path id="패스_1046" data-name="패스 1046" class="cls-1" d="M35.18,31.35l-2.76-4.16-4.81,1.33-.21,5,4.67,1.75Z"/><path id="패스_1047" data-name="패스 1047" class="cls-1" d="M17.59,19.78a17.65,17.65,0,0,0-2.75,4.56L17.93,23Z"/><path id="패스_1048" data-name="패스 1048" class="cls-1" d="M20.76,37.83l4.17-4,.24-5.51-6-3.2-5.31,2.37a17.24,17.24,0,0,0,.6,9.1.71.71,0,0,1,.29,0Z"/><path id="패스_1049" data-name="패스 1049" class="cls-3" d="M13.65,37a18.18,18.18,0,0,1-1-6,17.7,17.7,0,0,1,.3-3.25,1.13,1.13,0,0,1-.58-.23,18.47,18.47,0,0,0,1,10.41,1.23,1.23,0,0,1,0-.38A1.08,1.08,0,0,1,13.65,37Z"/><path id="패스_1050" data-name="패스 1050" class="cls-3" d="M19.67,16.52a18.2,18.2,0,0,1,11.27-3.9h0l.39,0a1.3,1.3,0,0,1,.46-.6c-.28,0-.56,0-.85,0a18.81,18.81,0,0,0-11.63,4A1.25,1.25,0,0,1,19.67,16.52Z"/><path id="패스_1051" data-name="패스 1051" class="cls-3" d="M47.43,38.87A18.46,18.46,0,0,1,41,46.22a1.27,1.27,0,0,1,.24.56A19.14,19.14,0,0,0,48,39h0A1.2,1.2,0,0,1,47.43,38.87Z"/><path id="패스_1052" data-name="패스 1052" class="cls-3" d="M49,28.16a17.46,17.46,0,0,1-.55,8.08l.42.65a18.56,18.56,0,0,0,1-5.95,18.19,18.19,0,0,0-.33-3.46.59.59,0,0,1,0,.08Z"/><path id="패스_1053" data-name="패스 1053" class="cls-3" d="M28.09,49a18,18,0,0,1-5.83-1.95,1.31,1.31,0,0,1-.27.06h-.13a1.21,1.21,0,0,1-1.2-1A18.46,18.46,0,0,1,14.52,39L14.27,39a1.17,1.17,0,0,1-.67-.44A19,19,0,0,0,28.25,49.66a1.12,1.12,0,0,1-.17-.59S28.09,49,28.09,49Z"/><path id="패스_1054" data-name="패스 1054" class="cls-3" d="M17.47,18.56l-.09-.82a19,19,0,0,0-4.49,7.47l.78-.35A18.39,18.39,0,0,1,17.47,18.56Z"/><path id="패스_1055" data-name="패스 1055" class="cls-3" d="M33.56,12.54l.18.32a18.18,18.18,0,0,1,8.48,3.69,1.21,1.21,0,0,1,.87.17,1.26,1.26,0,0,1,.53.78v.26a18.35,18.35,0,0,1,4.83,7.86,1.21,1.21,0,0,1,.69.18A19,19,0,0,0,33.25,12.16a1.24,1.24,0,0,1,.25.26Z"/><path id="패스_1056" data-name="패스 1056" class="cls-3" d="M30.94,49.25h-.12l-.55.58c.22,0,.44,0,.67,0a18.89,18.89,0,0,0,8.25-1.93l-.71-.33A18.18,18.18,0,0,1,30.94,49.25Z"/><path id="패스_1057" data-name="패스 1057" class="cls-3" d="M35.78,30.6a1.26,1.26,0,0,1,.51-.35l-2.43-3.67a1.18,1.18,0,0,1-.51.34Z"/><path id="패스_1058" data-name="패스 1058" class="cls-3" d="M26.49,33.22l.19-4.45-.26,0h0l-.35-.06-.19,4.44a1.67,1.67,0,0,1,.31,0A1.77,1.77,0,0,1,26.49,33.22Z"/><path id="패스_1059" data-name="패스 1059" class="cls-3" d="M27.32,34.46a1.2,1.2,0,0,1-.21.58l4.15,1.55a1.27,1.27,0,0,1,.21-.57Z"/><path id="패스_1060" data-name="패스 1060" class="cls-3" d="M31.91,26.37a1.17,1.17,0,0,1-.18-.58L27.46,27a1.15,1.15,0,0,1,.17.59Z"/><path id="패스_1061" data-name="패스 1061" class="cls-3" d="M35.71,32.15,33,35.61a.72.72,0,0,1,.2.09,1,1,0,0,1,.29.29l2.75-3.46A1.21,1.21,0,0,1,35.71,32.15Z"/><path id="패스_1062" data-name="패스 1062" class="cls-3" d="M18.05,23.92,14.4,25.55c-.09.25-.15.51-.23.77l4.11-1.83A1.3,1.3,0,0,1,18.05,23.92Z"/><path id="패스_1063" data-name="패스 1063" class="cls-3" d="M19.42,22.53,19,18.33c-.19.18-.38.36-.56.55l.39,3.72A1.17,1.17,0,0,1,19.42,22.53Z"/><path id="패스_1064" data-name="패스 1064" class="cls-3" d="M18.84,17a.31.31,0,0,0-.31-.3l-.3.27V17l.07.69c.19-.17.38-.35.57-.51Z"/><path id="패스_1065" data-name="패스 1065" class="cls-3" d="M12.93,26.2a.3.3,0,0,0-.19.29.31.31,0,0,0,.31.3h.06c.06-.25.12-.5.19-.75Z"/><path id="패스_1066" data-name="패스 1066" class="cls-3" d="M13.83,25.8c-.07.25-.13.5-.2.76l.54-.24c.07-.26.14-.52.22-.77Z"/><path id="패스_1067" data-name="패스 1067" class="cls-3" d="M18.42,18.87c.18-.19.37-.37.56-.55l-.06-.57c-.19.17-.38.33-.56.51Z"/><path id="패스_1068" data-name="패스 1068" class="cls-3" d="M18.53,16.66h0a.3.3,0,0,0-.26.27l.3-.27Z"/><path id="패스_1069" data-name="패스 1069" class="cls-3" d="M13.64,26.56c.06-.26.12-.51.2-.76L13.3,26c-.06.25-.13.5-.19.75l.07,0Z"/><path id="패스_1070" data-name="패스 1070" class="cls-3" d="M18.92,17.75l-.06-.56-.56.51.06.56C18.54,18.08,18.73,17.92,18.92,17.75Z"/><path id="패스_1071" data-name="패스 1071" class="cls-3" d="M35.47,17.87l-2.31-4.18-.75-.08,2.5,4.54A1.29,1.29,0,0,1,35.47,17.87Z"/><path id="패스_1072" data-name="패스 1072" class="cls-3" d="M37,19.11l5.5-1.06s0,0,.07,0c-.19-.16-.36-.34-.55-.49l-5.15,1A1.12,1.12,0,0,1,37,19.11Z"/><path id="패스_1073" data-name="패스 1073" class="cls-3" d="M32.41,13.61l.74.08-.28-.5c-.23,0-.46,0-.69,0,0,0,0,.06,0,.09Z"/><path id="패스_1074" data-name="패스 1074" class="cls-3" d="M42.67,17.92a.32.32,0,0,0,0-.23.32.32,0,0,0-.14-.2.31.31,0,0,0-.23,0l-.36.07c.19.16.36.33.54.5A.42.42,0,0,0,42.67,17.92Z"/><path id="패스_1075" data-name="패스 1075" class="cls-3" d="M32.75,13a.38.38,0,0,0-.3-.2.27.27,0,0,0-.15.05.29.29,0,0,0-.12.33c.23,0,.47,0,.7,0Z"/><path id="패스_1076" data-name="패스 1076" class="cls-3" d="M45.23,31.33l.05.07,2.77-3.5c0-.27-.1-.53-.15-.79L44.79,31A1.14,1.14,0,0,1,45.23,31.33Z"/><path id="패스_1077" data-name="패스 1077" class="cls-3" d="M45.14,33.06a1.29,1.29,0,0,1-.46.25l2.51,3.79c.09-.24.18-.48.26-.72L45.2,33S45.17,33,45.14,33.06Z"/><path id="패스_1078" data-name="패스 1078" class="cls-3" d="M48,38.1v0s.12,0,.18,0a.32.32,0,0,0,.08-.43l-.2-.3c-.09.23-.16.47-.25.69A.27.27,0,0,0,48,38.1Z"/><path id="패스_1079" data-name="패스 1079" class="cls-3" d="M48.71,26.59l.09.34A.31.31,0,0,0,48.71,26.59Z"/><path id="패스_1080" data-name="패스 1080" class="cls-3" d="M48.05,27.9l.39-.49c0-.25-.12-.5-.18-.75l-.36.45C48,27.37,48,27.64,48.05,27.9Z"/><path id="패스_1081" data-name="패스 1081" class="cls-3" d="M47.19,37.1l.32.47c.1-.23.18-.47.26-.71l-.32-.48C47.37,36.62,47.28,36.86,47.19,37.1Z"/><path id="패스_1082" data-name="패스 1082" class="cls-3" d="M47.76,38l.06.06c.1-.23.17-.46.26-.69l-.31-.47c-.09.24-.17.48-.27.71Z"/><path id="패스_1083" data-name="패스 1083" class="cls-3" d="M48.74,27l.06-.11-.09-.34h0a.31.31,0,0,0-.43.06h0c.06.25.13.5.18.76Z"/><path id="패스_1084" data-name="패스 1084" class="cls-3" d="M21.58,40.31a1.31,1.31,0,0,1-.43.08h0l-.19,0,.55,5.18c.21.14.43.27.65.39v-.06Z"/><path id="패스_1085" data-name="패스 1085" class="cls-3" d="M19.92,39.17a1.33,1.33,0,0,1,.15-.55l-5.24-1.11c.1.24.21.47.32.7l4.78,1S19.92,39.19,19.92,39.17Z"/><path id="패스_1086" data-name="패스 1086" class="cls-3" d="M14.83,37.51l-.24,0a.27.27,0,0,0-.24.08c.07.18.14.37.22.55l.58.12C15,38,14.93,37.75,14.83,37.51Z"/><path id="패스_1087" data-name="패스 1087" class="cls-3" d="M21.55,45.93a.3.3,0,0,0,.3.28h0v.08h0v-.1a.31.31,0,0,0,.28-.27c-.22-.13-.44-.26-.65-.4Z"/><path id="패스_1088" data-name="패스 1088" class="cls-3" d="M14.24,37.69a.29.29,0,0,0,0,.24.3.3,0,0,0,.19.14l.11,0c-.08-.18-.16-.37-.23-.55A.33.33,0,0,0,14.24,37.69Z"/><path id="패스_1089" data-name="패스 1089" class="cls-3" d="M21.86,46.67V46.3h0Z"/><path id="패스_1090" data-name="패스 1090" class="cls-3" d="M35,44.81a.81.81,0,0,1-.1.09l3.61,1.69c.24-.11.49-.21.72-.34l-4-1.9A1.3,1.3,0,0,1,35,44.81Z"/><path id="패스_1091" data-name="패스 1091" class="cls-3" d="M32.9,44.78l-3.27,3.49.81,0,2.92-3.12A1.13,1.13,0,0,1,32.9,44.78Z"/><path id="패스_1092" data-name="패스 1092" class="cls-3" d="M39.94,47.28a.32.32,0,0,0,.41-.15.32.32,0,0,0-.15-.41h0l-.65.38Z"/><path id="패스_1093" data-name="패스 1093" class="cls-3" d="M29.53,49.28l.09-.09-.59,0a.31.31,0,0,0,.4.18A.21.21,0,0,0,29.53,49.28Z"/><path id="패스_1094" data-name="패스 1094" class="cls-3" d="M30.44,48.31l-.81,0-.41.44.81,0Z"/><path id="패스_1095" data-name="패스 1095" class="cls-3" d="M39.19,46.25c-.23.13-.48.23-.72.34l.55.26.68-.36Z"/><path id="패스_1096" data-name="패스 1096" class="cls-3" d="M29.22,48.71l-.14.15a.32.32,0,0,0-.08.21.16.16,0,0,0,0,.09l.59,0,.41-.44Z"/><path id="패스_1097" data-name="패스 1097" class="cls-3" d="M39,46.85l.53.25c.22-.12.43-.25.64-.38l-.49-.23Z"/><path id="패스_1098" data-name="패스 1098" class="cls-3" d="M33.72,24.71l1.87-4.48A1.25,1.25,0,0,1,35,20l-1.85,4.43.31-.09Z"/><path id="패스_1099" data-name="패스 1099" class="cls-3" d="M32.83,26.05a.33.33,0,0,0,.4-.16l.07-.16-.22-.32-.36.1-.06.14A.31.31,0,0,0,32.83,26.05Z"/><path id="패스_1100" data-name="패스 1100" class="cls-3" d="M33.51,25.22l.21-.51-.24-.36-.31.08L33,25l.33-.09Z"/><path id="패스_1101" data-name="패스 1101" class="cls-3" d="M33.3,25.74l.21-.52-.23-.34L33,25l-.23.54.36-.1Z"/><path id="패스_1102" data-name="패스 1102" class="cls-3" d="M35.75,19.34h0l.23-.05.06-.14a.31.31,0,0,0-.17-.39.27.27,0,0,0-.12,0,.32.32,0,0,0-.29.19l-.05.13.07.13A.32.32,0,0,0,35.75,19.34Z"/><path id="패스_1103" data-name="패스 1103" class="cls-3" d="M35.77,19.79h0a.79.79,0,0,1-.56-.23L35,20a1.25,1.25,0,0,0,.57.23Z"/><path id="패스_1104" data-name="패스 1104" class="cls-3" d="M35.76,19.79h0l.21-.5-.22.05h0a.29.29,0,0,1-.27-.16l-.07-.13-.22.51A.79.79,0,0,0,35.76,19.79Z"/><path id="패스_1106" data-name="패스 1106" class="cls-3" d="M25.21,27.28l0-.64.05,0L20.43,24a1.37,1.37,0,0,1-.3.54Z"/><path id="패스_1107" data-name="패스 1107" class="cls-3" d="M26.11,27.76l.17.09a.33.33,0,0,0,.14,0h0a.32.32,0,0,0,.27-.16.31.31,0,0,0-.12-.42l-.11-.06-.33.09Z"/><path id="패스_1108" data-name="패스 1108" class="cls-3" d="M25.21,27.28l.45.24,0-.53.19,0-.58-.32-.05,0Z"/><path id="패스_1109" data-name="패스 1109" class="cls-3" d="M25.66,27.52l.45.24,0-.42.33-.09-.59-.31-.19,0Z"/><path id="패스_1110" data-name="패스 1110" class="cls-3" d="M19.54,23.69v-.16l-.14-.08a.32.32,0,0,0-.42.13.31.31,0,0,0,.13.42l.13.07.13-.06A.3.3,0,0,0,19.54,23.69Z"/><path id="패스_1111" data-name="패스 1111" class="cls-3" d="M19.7,24.32l.43.23a1.25,1.25,0,0,0,.3-.54L20,23.78A.75.75,0,0,1,19.7,24.32Z"/><path id="패스_1112" data-name="패스 1112" class="cls-3" d="M20,23.78l-.46-.25v.16a.31.31,0,0,1-.18.32l-.13.06.47.26A.75.75,0,0,0,20,23.78Z"/><path id="패스_1113" data-name="패스 1113" class="cls-3" d="M24.87,35.14l-3.08,3a1.39,1.39,0,0,1,.42.45l3.27-3.16-.61-.23Z"/><path id="패스_1114" data-name="패스 1114" class="cls-3" d="M26.34,34.16a.35.35,0,0,0-.21-.1h0a.28.28,0,0,0-.2.08l-.07.07,0,.35.39.15.14-.14A.31.31,0,0,0,26.34,34.16Z"/><path id="패스_1115" data-name="패스 1115" class="cls-3" d="M25.35,34.67l-.48.46v0l.61.23.36-.36-.5-.18Z"/><path id="패스_1116" data-name="패스 1116" class="cls-3" d="M25.83,34.21l-.48.46v.2l.5.19.37-.36-.39-.14Z"/><path id="패스_1117" data-name="패스 1117" class="cls-3" d="M21.21,38.87l-.16,0-.12.12a.29.29,0,0,0-.09.22.31.31,0,0,0,.31.31h0a.27.27,0,0,0,.21-.09l.11-.1,0-.15A.31.31,0,0,0,21.21,38.87Z"/><path id="패스_1118" data-name="패스 1118" class="cls-3" d="M21.78,38.12l-.35.35a.78.78,0,0,1,.43.44l.34-.34A1.21,1.21,0,0,0,21.78,38.12Z"/><path id="패스_1119" data-name="패스 1119" class="cls-3" d="M21.43,38.47l-.38.36.16,0a.31.31,0,0,1,.25.27v.15l.39-.38A.7.7,0,0,0,21.43,38.47Z"/><path id="패스_1120" data-name="패스 1120" class="cls-3" d="M32.42,38l1,5a1.28,1.28,0,0,1,.61-.12L33,38l-.15.2Z"/><path id="패스_1121" data-name="패스 1121" class="cls-3" d="M32.81,36.79l0-.13a.3.3,0,0,0-.13-.21.34.34,0,0,0-.17-.05h-.06a.3.3,0,0,0-.24.36l0,.17.37.14Z"/><path id="패스_1122" data-name="패스 1122" class="cls-3" d="M32.73,37.63h0l-.42-.16.1.53.47.17L33,38l-.12-.59Z"/><path id="패스_1123" data-name="패스 1123" class="cls-3" d="M32.73,37.63l.19-.24-.11-.6-.23.29-.37-.14.1.53.42.16Z"/><path id="패스_1124" data-name="패스 1124" class="cls-3" d="M33.94,43.82a.33.33,0,0,0-.23.1L33.6,44l0,.15a.31.31,0,0,0,.3.25h.15a.72.72,0,0,0,.11-.12.37.37,0,0,0,.05-.23l0-.15-.15-.07A.27.27,0,0,0,33.94,43.82Z"/><path id="패스_1125" data-name="패스 1125" class="cls-3" d="M33.5,43.51a.71.71,0,0,1,.6-.12L34,42.91a1.28,1.28,0,0,0-.61.12Z"/><path id="패스_1126" data-name="패스 1126" class="cls-3" d="M33.5,43.51l.1.52.11-.11a.27.27,0,0,1,.22-.1l.13,0,.14.07-.1-.53A.75.75,0,0,0,33.5,43.51Z"/><path id="패스_1127" data-name="패스 1127" class="cls-3" d="M37.91,31.85l5.18.5a1.23,1.23,0,0,1,0-.63L38,31.23l.17.25Z"/><path id="패스_1128" data-name="패스 1128" class="cls-3" d="M36.38,31.39a.31.31,0,0,0,.28.34h.16l.25-.31-.21-.31h-.14A.31.31,0,0,0,36.38,31.39Z"/><path id="패스_1129" data-name="패스 1129" class="cls-3" d="M37.36,31.79l.55.06.29-.37L38,31.23l-.59-.05.18.27Z"/><path id="패스_1130" data-name="패스 1130" class="cls-3" d="M36.82,31.74l.55.05.27-.34-.19-.28-.59-.05.21.31Z"/><path id="패스_1131" data-name="패스 1131" class="cls-3" d="M44,32.32l.08.13h.14l0,.22,0,0,0-.26a.31.31,0,0,0,.24-.52.35.35,0,0,0-.21-.1l-.19,0L44,32A.3.3,0,0,0,44,32.32Z"/><path id="패스_1132" data-name="패스 1132" class="cls-3" d="M43.09,32.35l.47,0a.75.75,0,0,1,.07-.62l-.5-.05A1.22,1.22,0,0,0,43.09,32.35Z"/><path id="패스_1133" data-name="패스 1133" class="cls-3" d="M43.56,32.39l.55.06L44,32.32A.3.3,0,0,1,44,32l.11-.14-.52-.05A.75.75,0,0,0,43.56,32.39Z"/><path id="패스_1134" data-name="패스 1134" class="cls-3" d="M44.27,32.68v.24h0v-.2Z"/></g></svg>