<svg id="Layer_1" data-name="Layer 1" xmlns="http://www.w3.org/2000/svg" xmlns:xlink="http://www.w3.org/1999/xlink" viewBox="0 0 64 62"><defs><style>.cls-1{fill:url(#linear-gradient);}.cls-2{fill:none;}.cls-3{fill:#110f3e;}</style><linearGradient id="linear-gradient" x1="35.15" y1="40.57" x2="35.15" y2="39.57" gradientTransform="matrix(11.9, 0, 0, -12.35, -387.84, 523.78)" gradientUnits="userSpaceOnUse"><stop offset="0" stop-color="#57c4f1"/><stop offset="1" stop-color="#43b5e8"/></linearGradient></defs><path id="Fill_4" data-name="Fill 4" class="cls-1" d="M32.14,22.88l-7.35,2-.33,7.63,7.15,2.68,4.75-6Z"/><g id="그룹_99" data-name="그룹 99"><path id="패스_1034" data-name="패스 1034" class="cls-2" d="M49.44,35.43A18,18,0,0,0,50,31c0-.62,0-1.24-.1-1.86l-2.53,3.19Z"/><path id="패스_1035" data-name="패스 1035" class="cls-2" d="M38.15,50.61H51.61V37.15A20.74,20.74,0,0,1,38.15,50.61Z"/><path id="패스_1036" data-name="패스 1036" class="cls-2" d="M32.8,49a18.12,18.12,0,0,0,5.86-1.25L35.4,46.2Z"/><path id="패스_1037" data-name="패스 1037" class="cls-2" d="M32.49,37.92,27.33,36l-4.14,4,.67,6.36a1.25,1.25,0,0,1-.1.63,17.73,17.73,0,0,0,5.71,1.82l4.26-4.55Z"/><path id="패스_1038" data-name="패스 1038" class="cls-2" d="M44.14,18.59l-6.24,1.2-2.38,5.72,3.16,4.78,6.58.63L49.19,26a.27.27,0,0,1,.08-.07,18.09,18.09,0,0,0-4.55-7.64A1.19,1.19,0,0,1,44.14,18.59Z"/><path id="패스_1039" data-name="패스 1039" class="cls-2" d="M12.39,37.18V50.6H25.82A20.64,20.64,0,0,1,12.39,37.18Z"/><path id="패스_1040" data-name="패스 1040" class="cls-2" d="M18.06,15.92a1.21,1.21,0,0,1,.61-.55,20.63,20.63,0,0,1,7.15-4H12.39V24.82A20.62,20.62,0,0,1,18.06,15.92Z"/><path id="패스_1041" data-name="패스 1041" class="cls-2" d="M51.61,24.82V11.39H38.18A20.68,20.68,0,0,1,51.61,24.82Z"/><path id="패스_1042" data-name="패스 1042" class="cls-2" d="M42.41,16.34a18,18,0,0,0-6.92-3l2.16,3.92Z"/><path id="패스_1043" data-name="패스 1043" class="cls-2" d="M27.48,26.17l5.67-1.58,2.43-5.84-3.1-5.6s0-.09,0-.14L32,13h0a17.91,17.91,0,0,0-11.5,4.16l.58,5.59Z"/><path id="패스_1044" data-name="패스 1044" class="cls-2" d="M16.18,39.61a18,18,0,0,0,5,5.78l-.5-4.81Z"/><path id="패스_1045" data-name="패스 1045" class="cls-2" d="M38.52,32.83,35,37.31l1.27,6.47,5.3,2.48a18.12,18.12,0,0,0,6.86-7.82l-3.29-5Z"/><path id="패스_1046" data-name="패스 1046" class="cls-2" d="M36.39,31.43l-2.85-4.31-5,1.38-.23,5.16,4.85,1.82Z"/><path id="패스_1047" data-name="패스 1047" class="cls-2" d="M18.19,19.45a18.1,18.1,0,0,0-2.86,4.73l3.2-1.43Z"/><path id="패스_1048" data-name="패스 1048" class="cls-2" d="M21.47,38.14,25.78,34l.25-5.7L19.84,25,14.35,27.4A17.64,17.64,0,0,0,15,36.82h.3Z"/><path id="패스_1049" data-name="패스 1049" class="cls-3" d="M14.1,37.22a18.36,18.36,0,0,1-.75-9.59,1.16,1.16,0,0,1-.61-.24A20.83,20.83,0,0,0,12.39,31a19.84,19.84,0,0,0,1.38,7.18,1.33,1.33,0,0,1,0-.4A1.24,1.24,0,0,1,14.1,37.22Z"/><path id="패스_1050" data-name="패스 1050" class="cls-3" d="M20.33,16.07A18.87,18.87,0,0,1,32,12h0l.41,0a1.26,1.26,0,0,1,.48-.61c-.3,0-.59,0-.89,0a19.53,19.53,0,0,0-12,4.17A1.24,1.24,0,0,1,20.33,16.07Z"/><path id="패스_1051" data-name="패스 1051" class="cls-3" d="M49.07,39.21a19.1,19.1,0,0,1-6.64,7.62,1.22,1.22,0,0,1,.25.57,19.77,19.77,0,0,0,7-8h0A1.22,1.22,0,0,1,49.07,39.21Z"/><path id="패스_1052" data-name="패스 1052" class="cls-3" d="M50.72,28.13A18.43,18.43,0,0,1,51,31a19,19,0,0,1-.82,5.5l.44.66a19.21,19.21,0,0,0,1-6.16,19.56,19.56,0,0,0-.34-3.58.36.36,0,0,1,0,.09Z"/><path id="패스_1053" data-name="패스 1053" class="cls-3" d="M29.06,49.72a19,19,0,0,1-6-2,1.27,1.27,0,0,1-.28.06H22.6a1.26,1.26,0,0,1-1.25-1.08A19.1,19.1,0,0,1,15,39.37l-.26-.06a1.25,1.25,0,0,1-.69-.46A19.62,19.62,0,0,0,29.22,50.39a1.35,1.35,0,0,1-.18-.61A.14.14,0,0,1,29.06,49.72Z"/><path id="패스_1054" data-name="패스 1054" class="cls-3" d="M18.05,18.19,18,17.34a19.65,19.65,0,0,0-4.65,7.73l.81-.36A19.06,19.06,0,0,1,18.05,18.19Z"/><path id="패스_1055" data-name="패스 1055" class="cls-3" d="M34.72,12l.18.33a19,19,0,0,1,8.78,3.82,1.27,1.27,0,0,1,1.45,1,1.22,1.22,0,0,1,0,.27,19,19,0,0,1,5,8.13,1.26,1.26,0,0,1,.71.19A19.63,19.63,0,0,0,34.4,11.55a1.12,1.12,0,0,1,.25.28Z"/><path id="패스_1056" data-name="패스 1056" class="cls-3" d="M32,50h-.12l-.57.61.69,0a19.33,19.33,0,0,0,8.54-2l-.73-.34A18.94,18.94,0,0,1,32,50Z"/><path id="패스_1057" data-name="패스 1057" class="cls-3" d="M37,30.65a1.32,1.32,0,0,1,.53-.36L35,26.49a1.33,1.33,0,0,1-.53.35Z"/><path id="패스_1058" data-name="패스 1058" class="cls-3" d="M27.4,33.37l.2-4.61a1.26,1.26,0,0,1-.27,0h0a1.51,1.51,0,0,1-.36-.06l-.2,4.6a1.13,1.13,0,0,1,.32-.05A1.25,1.25,0,0,1,27.4,33.37Z"/><path id="패스_1059" data-name="패스 1059" class="cls-3" d="M28.26,34.65a1.28,1.28,0,0,1-.22.6l4.3,1.61a1.19,1.19,0,0,1,.22-.6Z"/><path id="패스_1060" data-name="패스 1060" class="cls-3" d="M33,26.28a1.36,1.36,0,0,1-.19-.61L28.4,26.9a1.28,1.28,0,0,1,.18.61Z"/><path id="패스_1061" data-name="패스 1061" class="cls-3" d="M37,32.26,34.1,35.84a1.21,1.21,0,0,1,.2.09,1.07,1.07,0,0,1,.3.3l2.84-3.58A1.11,1.11,0,0,1,37,32.26Z"/><path id="패스_1062" data-name="패스 1062" class="cls-3" d="M18.66,23.74l-3.78,1.68c-.09.26-.16.53-.23.8l4.25-1.89A1.32,1.32,0,0,1,18.66,23.74Z"/><path id="패스_1063" data-name="패스 1063" class="cls-3" d="M20.08,22.29l-.46-4.35-.58.57.41,3.85A1.35,1.35,0,0,1,20.08,22.29Z"/><path id="패스_1064" data-name="패스 1064" class="cls-3" d="M19.48,16.53a.34.34,0,0,0-.32-.31c-.11.09-.21.19-.31.29a.09.09,0,0,0,0,.07l.07.72.58-.53Z"/><path id="패스_1065" data-name="패스 1065" class="cls-3" d="M13.35,26.1a.32.32,0,0,0-.19.29.32.32,0,0,0,.32.32h.06c.06-.26.13-.52.2-.77Z"/><path id="패스_1066" data-name="패스 1066" class="cls-3" d="M14.29,25.68c-.08.26-.13.52-.2.79l.56-.25c.07-.27.14-.54.23-.8Z"/><path id="패스_1067" data-name="패스 1067" class="cls-3" d="M19,18.51c.19-.2.39-.39.58-.57l-.06-.6c-.19.18-.4.34-.58.53Z"/><path id="패스_1068" data-name="패스 1068" class="cls-3" d="M19.16,16.22h-.05a.31.31,0,0,0-.26.28l.31-.28Z"/><path id="패스_1069" data-name="패스 1069" class="cls-3" d="M14.09,26.47c.07-.26.13-.53.2-.79l-.55.25c-.07.25-.14.51-.2.76h.07Z"/><path id="패스_1070" data-name="패스 1070" class="cls-3" d="M19.56,17.34l-.06-.57c-.2.17-.39.35-.58.53l.06.57C19.16,17.69,19.37,17.52,19.56,17.34Z"/><path id="패스_1071" data-name="패스 1071" class="cls-3" d="M36.69,17.48,34.3,13.15l-.78-.09,2.6,4.7A1.22,1.22,0,0,1,36.69,17.48Z"/><path id="패스_1072" data-name="패스 1072" class="cls-3" d="M38.24,18.75l5.7-1.09.07,0c-.19-.17-.37-.35-.56-.51l-5.34,1A1.22,1.22,0,0,1,38.24,18.75Z"/><path id="패스_1073" data-name="패스 1073" class="cls-3" d="M33.52,13.06l.78.09L34,12.62l-.72,0s0,.07,0,.1Z"/><path id="패스_1074" data-name="패스 1074" class="cls-3" d="M44.15,17.52a.29.29,0,0,0,.05-.24.35.35,0,0,0-.14-.2.34.34,0,0,0-.24,0l-.38.07c.2.16.38.34.56.51A.31.31,0,0,0,44.15,17.52Z"/><path id="패스_1075" data-name="패스 1075" class="cls-3" d="M33.88,12.39a.35.35,0,0,0-.31-.2.27.27,0,0,0-.16,0,.3.3,0,0,0-.12.35c.24,0,.48,0,.72.05Z"/><path id="패스_1076" data-name="패스 1076" class="cls-3" d="M46.8,31.4a.56.56,0,0,0,.05.08l2.87-3.62c0-.27-.1-.55-.16-.82l-3.22,4.05A1.44,1.44,0,0,1,46.8,31.4Z"/><path id="패스_1077" data-name="패스 1077" class="cls-3" d="M46.71,33.2a1.25,1.25,0,0,1-.48.26l2.6,3.92c.1-.25.19-.49.28-.74l-2.33-3.52S46.74,33.17,46.71,33.2Z"/><path id="패스_1078" data-name="패스 1078" class="cls-3" d="M49.69,38.42v0s.13,0,.19,0a.33.33,0,0,0,.08-.45l-.21-.31c-.08.24-.16.48-.26.72A.5.5,0,0,0,49.69,38.42Z"/><path id="패스_1079" data-name="패스 1079" class="cls-3" d="M50.4,26.5c0,.12.07.23.09.35A.31.31,0,0,0,50.4,26.5Z"/><path id="패스_1080" data-name="패스 1080" class="cls-3" d="M49.72,27.86l.4-.51c0-.26-.13-.52-.19-.78l-.37.47C49.62,27.31,49.67,27.59,49.72,27.86Z"/><path id="패스_1081" data-name="패스 1081" class="cls-3" d="M48.83,37.38l.33.5c.1-.25.18-.5.27-.74l-.33-.5C49,36.89,48.93,37.13,48.83,37.38Z"/><path id="패스_1082" data-name="패스 1082" class="cls-3" d="M49.42,38.28s0,0,.07.06c.1-.23.17-.48.26-.72l-.32-.48c-.09.24-.17.5-.27.74Z"/><path id="패스_1083" data-name="패스 1083" class="cls-3" d="M50.43,27a.34.34,0,0,0,.06-.12l-.09-.35h0a.32.32,0,0,0-.44.07h0c.07.26.14.52.2.79Z"/><path id="패스_1084" data-name="패스 1084" class="cls-3" d="M22.31,40.71a1.32,1.32,0,0,1-.44.08h0l-.19,0,.56,5.37c.22.14.44.28.67.41a.15.15,0,0,0,0-.07Z"/><path id="패스_1085" data-name="패스 1085" class="cls-3" d="M20.6,39.52a1.12,1.12,0,0,1,.15-.56l-5.42-1.15c.1.24.21.48.32.72l5,1S20.6,39.55,20.6,39.52Z"/><path id="패스_1086" data-name="패스 1086" class="cls-3" d="M15.33,37.81l-.25-.05a.27.27,0,0,0-.25.07c.07.2.15.39.23.58l.59.12C15.54,38.29,15.43,38.05,15.33,37.81Z"/><path id="패스_1087" data-name="패스 1087" class="cls-3" d="M22.28,46.53a.33.33,0,0,0,.32.29h0v.08l0,0v-.1a.34.34,0,0,0,.29-.29l-.68-.41Z"/><path id="패스_1088" data-name="패스 1088" class="cls-3" d="M14.71,38a.34.34,0,0,0,0,.24.35.35,0,0,0,.2.14l.11,0c-.08-.19-.15-.38-.23-.58A.33.33,0,0,0,14.71,38Z"/><path id="패스_1089" data-name="패스 1089" class="cls-3" d="M22.6,47.29l0-.37,0,0Z"/><path id="패스_1090" data-name="패스 1090" class="cls-3" d="M36.16,45.36s-.07.06-.1.1l3.74,1.76c.25-.12.5-.23.74-.36l-4.2-2A1.12,1.12,0,0,1,36.16,45.36Z"/><path id="패스_1091" data-name="패스 1091" class="cls-3" d="M34,45.34,30.65,49l.84,0,3-3.23A1.3,1.3,0,0,1,34,45.34Z"/><path id="패스_1092" data-name="패스 1092" class="cls-3" d="M41.32,47.92a.31.31,0,0,0,.42-.15.32.32,0,0,0-.15-.43h0c-.22.14-.44.27-.67.39Z"/><path id="패스_1093" data-name="패스 1093" class="cls-3" d="M30.55,50l.09-.1c-.2,0-.41,0-.61,0a.32.32,0,0,0,.41.2Z"/><path id="패스_1094" data-name="패스 1094" class="cls-3" d="M31.49,49l-.84,0-.42.45c.27,0,.55,0,.83,0Z"/><path id="패스_1095" data-name="패스 1095" class="cls-3" d="M40.55,46.86c-.24.13-.5.23-.74.35l.56.27.7-.38Z"/><path id="패스_1096" data-name="패스 1096" class="cls-3" d="M30.23,49.4l-.15.16a.31.31,0,0,0-.09.22.2.2,0,0,0,0,.08l.61,0,.42-.46C30.78,49.43,30.5,49.43,30.23,49.4Z"/><path id="패스_1097" data-name="패스 1097" class="cls-3" d="M40.37,47.48l.54.25c.23-.12.45-.26.67-.39l-.51-.24Z"/><path id="패스_1098" data-name="패스 1098" class="cls-3" d="M34.89,24.56l1.92-4.64a1.24,1.24,0,0,1-.58-.24l-1.91,4.59.32-.09Z"/><path id="패스_1099" data-name="패스 1099" class="cls-3" d="M34,26a.35.35,0,0,0,.42-.18l.07-.15-.22-.34-.38.1-.06.14a.32.32,0,0,0,.17.42Z"/><path id="패스_1100" data-name="패스 1100" class="cls-3" d="M34.67,25.09l.22-.53-.25-.38-.32.09-.24.56.35-.1Z"/><path id="패스_1101" data-name="패스 1101" class="cls-3" d="M34.45,25.61l.22-.52-.24-.36-.35.1-.23.56.37-.1Z"/><path id="패스_1102" data-name="패스 1102" class="cls-3" d="M37,19h0l.23,0,.06-.15a.31.31,0,0,0-.17-.4.28.28,0,0,0-.13,0,.31.31,0,0,0-.29.19l-.06.13.08.14A.32.32,0,0,0,37,19Z"/><path id="패스_1103" data-name="패스 1103" class="cls-3" d="M37,19.46h0a.75.75,0,0,1-.57-.24l-.19.45a1.25,1.25,0,0,0,.59.25Z"/><path id="패스_1104" data-name="패스 1104" class="cls-3" d="M37,19.47h0l.22-.52L37,19h0a.32.32,0,0,1-.28-.16l-.08-.13-.22.52A.79.79,0,0,0,37,19.47Z"/><path id="패스_1106" data-name="패스 1106" class="cls-3" d="M26.07,27.21l0-.66h0l-5-2.7a1.16,1.16,0,0,1-.31.55Z"/><path id="패스_1107" data-name="패스 1107" class="cls-3" d="M27,27.71l.18.1a.23.23,0,0,0,.14,0h0a.34.34,0,0,0,.29-.17.32.32,0,0,0-.13-.43l-.12-.06-.34.1Z"/><path id="패스_1108" data-name="패스 1108" class="cls-3" d="M26.07,27.21l.47.25,0-.55.2-.05-.6-.33-.05,0Z"/><path id="패스_1109" data-name="패스 1109" class="cls-3" d="M26.54,27.46l.46.25,0-.43.35-.1-.61-.32-.2.05Z"/><path id="패스_1110" data-name="패스 1110" class="cls-3" d="M20.2,23.5v-.17L20,23.26a.31.31,0,0,0-.43.13.32.32,0,0,0,.13.43l.14.07.14-.06A.32.32,0,0,0,20.2,23.5Z"/><path id="패스_1111" data-name="패스 1111" class="cls-3" d="M20.37,24.16l.44.23a1.19,1.19,0,0,0,.31-.56l-.45-.24A.77.77,0,0,1,20.37,24.16Z"/><path id="패스_1112" data-name="패스 1112" class="cls-3" d="M20.67,23.59l-.48-.26v.17a.32.32,0,0,1-.18.33l-.14.06.5.27A.8.8,0,0,0,20.67,23.59Z"/><path id="패스_1113" data-name="패스 1113" class="cls-3" d="M25.72,35.35l-3.2,3.1a1.14,1.14,0,0,1,.44.46l3.38-3.28-.62-.23Z"/><path id="패스_1114" data-name="패스 1114" class="cls-3" d="M27.24,34.34a.33.33,0,0,0-.22-.11h0a.33.33,0,0,0-.21.09l-.07.07,0,.36.4.15.15-.14A.32.32,0,0,0,27.24,34.34Z"/><path id="패스_1115" data-name="패스 1115" class="cls-3" d="M26.22,34.87l-.5.48v0l.63.23.37-.37-.51-.19Z"/><path id="패스_1116" data-name="패스 1116" class="cls-3" d="M26.72,34.39l-.5.48v.2l.51.19.38-.37-.4-.15Z"/><path id="패스_1117" data-name="패스 1117" class="cls-3" d="M21.93,39.21l-.16,0-.12.12a.28.28,0,0,0-.1.22.31.31,0,0,0,.31.32h0a.32.32,0,0,0,.23-.09l.11-.1,0-.16A.32.32,0,0,0,21.93,39.21Z"/><path id="패스_1118" data-name="패스 1118" class="cls-3" d="M22.53,38.44l-.37.36a.77.77,0,0,1,.45.45l.35-.34A1.29,1.29,0,0,0,22.53,38.44Z"/><path id="패스_1119" data-name="패스 1119" class="cls-3" d="M22.16,38.8l-.39.38.16,0a.31.31,0,0,1,.25.28l0,.16.4-.4A.73.73,0,0,0,22.16,38.8Z"/><path id="패스_1120" data-name="패스 1120" class="cls-3" d="M33.53,38.31l1,5.21a1.21,1.21,0,0,1,.62-.12l-1-5.11-.16.2Z"/><path id="패스_1121" data-name="패스 1121" class="cls-3" d="M33.93,37.07l0-.15a.35.35,0,0,0-.14-.2.35.35,0,0,0-.18,0h-.06a.33.33,0,0,0-.25.38l0,.17.39.15Z"/><path id="패스_1122" data-name="패스 1122" class="cls-3" d="M33.86,37.93h0l-.44-.16.11.55.49.18.16-.2-.12-.62Z"/><path id="패스_1123" data-name="패스 1123" class="cls-3" d="M33.86,37.93l.2-.25-.12-.61-.24.3-.38-.15.11.55.43.16Z"/><path id="패스_1124" data-name="패스 1124" class="cls-3" d="M35.11,44.34a.31.31,0,0,0-.24.1l-.11.12,0,.16a.32.32,0,0,0,.31.26h.16s.06-.06.11-.13a.37.37,0,0,0,.05-.23l0-.16-.14-.07A.31.31,0,0,0,35.11,44.34Z"/><path id="패스_1125" data-name="패스 1125" class="cls-3" d="M34.65,44a.78.78,0,0,1,.63-.13l-.1-.49a1.36,1.36,0,0,0-.63.12Z"/><path id="패스_1126" data-name="패스 1126" class="cls-3" d="M34.65,44l.11.54.11-.12a.35.35,0,0,1,.24-.1.31.31,0,0,1,.13,0l.15.07-.11-.55A.78.78,0,0,0,34.65,44Z"/><path id="패스_1127" data-name="패스 1127" class="cls-3" d="M39.23,31.94l5.35.52a1.26,1.26,0,0,1,.05-.64l-5.27-.51.17.25Z"/><path id="패스_1128" data-name="패스 1128" class="cls-3" d="M37.64,31.47a.32.32,0,0,0,.28.35h.18l.25-.32-.21-.32H38A.32.32,0,0,0,37.64,31.47Z"/><path id="패스_1129" data-name="패스 1129" class="cls-3" d="M38.66,31.89l.56.05.3-.38-.17-.25-.61-.06.19.28Z"/><path id="패스_1130" data-name="패스 1130" class="cls-3" d="M38.1,31.83l.56.06.28-.36-.19-.28-.61-.06.21.32Z"/><path id="패스_1131" data-name="패스 1131" class="cls-3" d="M45.55,32.43l.09.13.15,0v.22l0,0v-.26a.32.32,0,0,0,.23-.09.33.33,0,0,0,0-.45.32.32,0,0,0-.22-.1l-.19,0-.11.14A.32.32,0,0,0,45.55,32.43Z"/><path id="패스_1132" data-name="패스 1132" class="cls-3" d="M44.58,32.46l.49,0a.82.82,0,0,1,.07-.65l-.51-.05A1.3,1.3,0,0,0,44.58,32.46Z"/><path id="패스_1133" data-name="패스 1133" class="cls-3" d="M45.07,32.51l.57.05-.09-.13a.33.33,0,0,1,0-.37l.11-.14-.54-.05A.8.8,0,0,0,45.07,32.51Z"/><path id="패스_1134" data-name="패스 1134" class="cls-3" d="M45.8,32.81l0,.24h0v-.2Z"/></g></svg>