<svg id="Layer_1" data-name="Layer 1" xmlns="http://www.w3.org/2000/svg" xmlns:xlink="http://www.w3.org/1999/xlink" viewBox="0 0 64 62"><defs><style>.cls-1{fill:none;}.cls-2{fill:#110f3e;}.cls-3{fill:url(#linear-gradient);}</style><linearGradient id="linear-gradient" x1="25.07" y1="49.75" x2="25.07" y2="48.75" gradientTransform="matrix(16.46, 0, 0, -19.96, -383.5, 1007.72)" gradientUnits="userSpaceOnUse"><stop offset="0" stop-color="#74cbee"/><stop offset="1" stop-color="#45b3e6"/></linearGradient></defs><g id="그룹_78" data-name="그룹 78"><g id="그룹_6" data-name="그룹 6"><rect id="Rectangle" class="cls-1" y="-1" width="64" height="64"/></g><path id="패스_1032" data-name="패스 1032" class="cls-2" d="M25.48,35h0A2.54,2.54,0,0,0,28,33.18l.93-3h3.92l1,3A2.57,2.57,0,0,0,36.27,35h.16a2.63,2.63,0,0,0,2.1-1,2.4,2.4,0,0,0,.36-2.21L34.28,18a2.57,2.57,0,0,0-2.43-1.73H30A2.59,2.59,0,0,0,27.56,18L23,31.71a2.42,2.42,0,0,0,.37,2.22A2.63,2.63,0,0,0,25.48,35Zm-2-3.14L28,18.1a2.15,2.15,0,0,1,2-1.45h1.79a2.12,2.12,0,0,1,2,1.44l4.61,13.73a2,2,0,0,1-.31,1.89,2.14,2.14,0,0,1-1.7.85h-.15a2.15,2.15,0,0,1-2-1.44l-.87-2.67a1,1,0,0,0-.9-.62H29.26a.92.92,0,0,0-.9.64l-.82,2.61a2.13,2.13,0,0,1-2,1.48h-.06a2.13,2.13,0,0,1-1.69-.85,2,2,0,0,1-.31-1.88Z"/><path id="패스_1033" data-name="패스 1033" class="cls-3" d="M23.28,35Zm-2.2-3.42c5.27-15.91,6.15-16.51,7.17-16.53H30.2c1,0,1.87.62,7.21,16.53A3.72,3.72,0,0,1,37,33.65a3,3,0,0,1-1.73.92h-.17c-1,0-1.89-.62-3.17-4.48-.14-.41-1-.68-4.49-.68a1,1,0,0,0-1,.7L25.52,33a2.3,2.3,0,0,1-2.2,1.61h-.06a2.34,2.34,0,0,1-1.84-.92,2.24,2.24,0,0,1-.35-2.06Z"/><path id="패스_845" data-name="패스 845" class="cls-1" d="M25.49,33.36h0a.92.92,0,0,0,.9-.64l.82-2.61a2.14,2.14,0,0,1,2.05-1.48h3.22a2.12,2.12,0,0,1,2,1.44l.88,2.67a.89.89,0,0,0,.89.62h.15a.91.91,0,0,0,.76-.37.86.86,0,0,0,.13-.79l-4.6-13.72a.92.92,0,0,0-.9-.63H30a1,1,0,0,0-.9.63L24.59,32.2a.86.86,0,0,0,.13.79A1,1,0,0,0,25.49,33.36Zm3.9-10.74c.18-.57.34-1.21.5-1.84l.05-.2c.1-.4.18-.74.27-1l.12-.45h.92l.17.45.15.58c.21.81.44,1.71.71,2.51l1.35,4.12-.57.27v.51H27.81Z"/><path id="패스_846" data-name="패스 846" class="cls-1" d="M22.44,37.55H40.63a1.5,1.5,0,0,1,.8.24l10.25,6.83V25.56a12.24,12.24,0,0,0-12.4-12H22.44a12.25,12.25,0,0,0-12.22,12A12.24,12.24,0,0,0,22.44,37.55Zm-.55-6.21,4.54-13.73A3.73,3.73,0,0,1,30,15.05h1.81a3.79,3.79,0,0,1,3.56,2.54L40,31.33a3.6,3.6,0,0,1-.54,3.32,3.89,3.89,0,0,1-3,1.51h-.19a3.78,3.78,0,0,1-3.57-2.56L32,31.42H29.78l-.67,2.12a3.75,3.75,0,0,1-3.58,2.62h-.05a3.89,3.89,0,0,1-3-1.5,3.6,3.6,0,0,1-.55-3.32Z"/><path id="패스_964" data-name="패스 964" class="cls-2" d="M22.63,39.15H40.55L53,47.42a.22.22,0,0,0,.13,0h0a.2.2,0,0,0,.11,0,.18.18,0,0,0,.11-.17V25.55a13.85,13.85,0,0,0-14-13.6H22.63a13.85,13.85,0,0,0-14,13.6A13.84,13.84,0,0,0,22.63,39.15Zm-.19-26.8H39.27a13.47,13.47,0,0,1,13.6,13.19V46.85L40.76,38.78a.23.23,0,0,0-.14,0h-18A13.44,13.44,0,0,1,9,25.56,13.46,13.46,0,0,1,22.44,12.35Z"/><path id="패스_965" data-name="패스 965" class="cls-2" d="M25.48,35h0A2.54,2.54,0,0,0,28,33.18l.93-3h3.92l1,3A2.57,2.57,0,0,0,36.27,35h.16a2.63,2.63,0,0,0,2.1-1,2.4,2.4,0,0,0,.36-2.21L34.28,18a2.57,2.57,0,0,0-2.43-1.73H30A2.59,2.59,0,0,0,27.56,18L23,31.71a2.42,2.42,0,0,0,.37,2.22A2.63,2.63,0,0,0,25.48,35Zm-2-3.14L28,18.1a2.15,2.15,0,0,1,2-1.45h1.79a2.12,2.12,0,0,1,2,1.44l4.61,13.73a2,2,0,0,1-.31,1.89,2.14,2.14,0,0,1-1.7.85h-.15a2.15,2.15,0,0,1-2-1.44l-.87-2.67a1,1,0,0,0-.9-.62H29.26a.92.92,0,0,0-.9.64l-.82,2.61a2.13,2.13,0,0,1-2,1.48h-.06a2.13,2.13,0,0,1-1.69-.85,2,2,0,0,1-.31-1.88Z"/><path id="패스_966" data-name="패스 966" class="cls-2" d="M31.1,25.52c-.08-.24-.17-.52-.27-.8l-.26.8Z"/><path id="패스_967" data-name="패스 967" class="cls-2" d="M30.82,22c-.09.35-.19.7-.29,1l-1.08,3.34h2.78L31.13,23C31,22.66,30.92,22.31,30.82,22Zm-1.07,4.16,1-3.08c0-.09.06-.18.08-.26l1.1,3.34Z"/><path id="패스_968" data-name="패스 968" class="cls-2" d="M30.75,23l-1,3.08h2.17s-1.06-3.25-1.1-3.34C30.8,22.86,30.77,23,30.75,23Zm.35,2.48h-.53l.26-.8c.1.28.19.56.27.8Z"/></g></svg>